<svg width="14" height="18" viewBox="0 0 14 18" fill="none" xmlns="http://www.w3.org/2000/svg">
<path d="M1.81028 2.85097H3.96094V1.85891C3.96094 1.83081 3.96229 1.80271 3.96518 1.77481C3.96788 1.7469 3.97193 1.71899 3.97753 1.69147C3.98293 1.66395 3.98987 1.63663 3.99797 1.60969C4.00608 1.58275 4.01553 1.5564 4.02633 1.53043C4.03694 1.50446 4.0489 1.47907 4.06221 1.45426C4.07533 1.42946 4.0898 1.40523 4.10523 1.38198C4.12085 1.35853 4.13764 1.33605 4.15538 1.31434C4.17313 1.29244 4.19184 1.27171 4.21171 1.25174C4.23139 1.23198 4.25222 1.21298 4.27382 1.19516C4.29543 1.17733 4.318 1.16066 4.34115 1.14496C4.36449 1.12926 4.38841 1.11492 4.4131 1.10155C4.43779 1.08837 4.46306 1.07636 4.48891 1.0655C4.51476 1.05484 4.54118 1.04535 4.568 1.03702C4.59462 1.02888 4.62182 1.02209 4.64921 1.01647C4.67679 1.01105 4.70438 1.00698 4.73216 1.00407C4.76013 1.00136 4.7881 1 4.81607 1H9.10002C9.12799 1 9.15596 1.00136 9.18374 1.00407C9.21171 1.00698 9.23929 1.01105 9.26669 1.01647C9.29427 1.02209 9.32128 1.02888 9.34809 1.03702C9.3749 1.04535 9.40114 1.05484 9.42718 1.0655C9.45303 1.07636 9.4783 1.08837 9.50299 1.10155C9.52768 1.11492 9.5516 1.12926 9.57475 1.14496C9.59809 1.16066 9.62066 1.17733 9.64226 1.19516C9.66387 1.21298 9.68451 1.23198 9.70438 1.25174C9.72425 1.27171 9.74296 1.29244 9.76071 1.31434C9.77845 1.33605 9.79524 1.35853 9.81067 1.38198C9.82629 1.40523 9.84057 1.42946 9.85388 1.45426C9.86699 1.47907 9.87895 1.50446 9.88976 1.53043C9.90056 1.5564 9.91001 1.58275 9.91811 1.60969C9.92622 1.63663 9.93297 1.66395 9.93856 1.69147C9.94396 1.71899 9.94821 1.7469 9.95091 1.77481C9.95361 1.80271 9.95515 1.83081 9.95515 1.85891V2.85097H12.1058C12.1338 2.85097 12.1617 2.85233 12.1895 2.85523C12.2175 2.85795 12.2451 2.86202 12.2725 2.86764C12.3001 2.87306 12.3271 2.87985 12.3539 2.88818C12.3807 2.89632 12.4071 2.90581 12.433 2.91647C12.4588 2.92733 12.4841 2.93934 12.5088 2.95271C12.5335 2.96589 12.5574 2.98043 12.5807 2.99593C12.6039 3.01163 12.6264 3.02829 12.6481 3.04612C12.6697 3.06415 12.6903 3.08295 12.7102 3.10291C12.73 3.12267 12.7487 3.1436 12.7665 3.16531C12.7842 3.18702 12.801 3.2095 12.8165 3.23295C12.8321 3.2564 12.8465 3.28043 12.8597 3.30523C12.873 3.33004 12.8849 3.35543 12.8955 3.3814C12.9063 3.40736 12.9158 3.43372 12.9239 3.46066C12.932 3.4876 12.9388 3.51492 12.9443 3.54244C12.9497 3.56996 12.954 3.59787 12.9567 3.62578C12.9594 3.65388 12.9609 3.68178 12.9609 3.71008V4.33992C12.96 4.37229 12.9575 4.40446 12.953 4.43643C12.9488 4.46841 12.9428 4.50019 12.9349 4.5314C12.9272 4.56279 12.9179 4.5936 12.9067 4.62403C12.8957 4.65426 12.8832 4.68391 12.8689 4.71298C12.8546 4.74186 12.8388 4.76996 12.8217 4.79729C12.8045 4.82442 12.7858 4.85078 12.7657 4.87597C12.7457 4.90116 12.7242 4.92539 12.7017 4.94826C12.6789 4.97112 12.6552 4.99283 12.6301 5.01318C12.6052 5.03353 12.5792 5.05233 12.5522 5.06996C12.5252 5.0874 12.4974 5.10349 12.4687 5.11802C12.4399 5.13256 12.4104 5.14535 12.3803 5.15678C12.3502 5.16802 12.3197 5.17771 12.2885 5.18566C12.2574 5.1936 12.2258 5.2 12.194 5.20465C12.1621 5.20911 12.1303 5.21202 12.0981 5.21318C12.0661 5.21434 12.0339 5.21376 12.0018 5.21124C11.9698 5.20891 11.938 5.20484 11.9063 5.19903L11.4017 15.6734C11.3996 15.719 11.3954 15.7641 11.389 15.8091C11.3824 15.8541 11.3739 15.8986 11.3633 15.9428C11.3525 15.987 11.3398 16.0306 11.3251 16.0736C11.3103 16.1167 11.2935 16.1587 11.2746 16.2002C11.2559 16.2415 11.2352 16.2818 11.2125 16.3213C11.1899 16.3607 11.1654 16.3988 11.1392 16.4359C11.1129 16.4729 11.085 16.5085 11.0553 16.5428C11.0256 16.5773 10.9945 16.6101 10.9617 16.6415C10.9289 16.6729 10.8948 16.7025 10.8591 16.7306C10.8236 16.7587 10.7867 16.7851 10.7486 16.8097C10.7106 16.8341 10.6714 16.8568 10.6311 16.8777C10.591 16.8984 10.5497 16.9172 10.5076 16.9341C10.4658 16.951 10.4229 16.9659 10.3795 16.9787C10.3361 16.9913 10.2921 17.0019 10.2476 17.0107C10.2032 17.0192 10.1585 17.0256 10.1133 17.0298C10.0684 17.0341 10.0232 17.0362 9.97791 17.036H3.93818C3.89304 17.0362 3.8477 17.0341 3.80276 17.0298C3.75762 17.0256 3.71287 17.0192 3.6685 17.0105C3.62413 17.0019 3.58015 16.9913 3.53675 16.9785C3.49335 16.9657 3.45052 16.951 3.40847 16.9341C3.36661 16.9172 3.32533 16.8984 3.2852 16.8775C3.24489 16.8568 3.20573 16.8341 3.16773 16.8095C3.12953 16.7849 3.09269 16.7587 3.05719 16.7306C3.0217 16.7025 2.98736 16.6727 2.95476 16.6415C2.92197 16.6101 2.89072 16.5771 2.86101 16.5428C2.8315 16.5085 2.80353 16.4729 2.7773 16.4359C2.75106 16.3988 2.72656 16.3605 2.70399 16.3211C2.68123 16.2818 2.66059 16.2415 2.64169 16.2002C2.62297 16.1587 2.60619 16.1167 2.59134 16.0736C2.57649 16.0306 2.56375 15.9872 2.55314 15.943C2.54253 15.8988 2.53405 15.8541 2.52749 15.8091C2.52112 15.7641 2.51688 15.719 2.51476 15.6736L2.01013 5.19903C1.97849 5.20484 1.94666 5.20891 1.91464 5.21124C1.88262 5.21357 1.8504 5.21415 1.81838 5.21298C1.78617 5.21202 1.75415 5.20911 1.72232 5.20446C1.69049 5.2 1.65905 5.1936 1.62799 5.18566C1.59674 5.17752 1.56626 5.16802 1.53598 5.15659C1.50588 5.14535 1.47656 5.13236 1.44782 5.11783C1.41908 5.10329 1.3913 5.0874 1.36429 5.06977C1.33729 5.05233 1.31125 5.03333 1.28617 5.01298C1.26128 4.99264 1.23756 4.97112 1.2148 4.94806C1.19223 4.92519 1.17081 4.90116 1.15075 4.87597C1.13069 4.85058 1.11198 4.82442 1.09481 4.79709C1.07745 4.76996 1.06182 4.74186 1.04755 4.71279C1.03328 4.68391 1.02074 4.65426 1.00974 4.62384C0.998553 4.5936 0.989294 4.56279 0.981385 4.5314C0.973669 4.5 0.967689 4.46841 0.963445 4.43643C0.959008 4.40426 0.956501 4.37229 0.955536 4.33992V3.70988C0.955536 3.68178 0.956886 3.65368 0.95978 3.62578C0.962481 3.59787 0.966724 3.56996 0.972126 3.54244C0.977527 3.51492 0.984471 3.4876 0.992573 3.46066C1.00068 3.43372 1.01013 3.40736 1.02093 3.3814C1.03154 3.35543 1.0435 3.33004 1.05681 3.30523C1.06993 3.28043 1.08439 3.2564 1.09983 3.23295C1.11545 3.20969 1.13204 3.18702 1.14979 3.16531C1.16753 3.1436 1.18644 3.12287 1.20611 3.10291C1.22598 3.08295 1.24662 3.06415 1.26823 3.04632C1.29003 3.02849 1.3124 3.01163 1.33574 2.99612C1.35889 2.98043 1.38281 2.96609 1.4075 2.95271C1.43219 2.93953 1.45747 2.92752 1.48331 2.91667C1.50916 2.90581 1.53559 2.89632 1.56221 2.88818C1.58902 2.88004 1.61622 2.87306 1.64361 2.86764C1.67101 2.86221 1.69878 2.85795 1.72656 2.85523C1.75434 2.85233 1.78231 2.85097 1.81028 2.85097ZM9.38513 1.85891C9.38493 1.84012 9.3832 1.82151 9.37953 1.8031C9.37587 1.78469 9.37047 1.76686 9.36333 1.74942C9.35619 1.73217 9.34732 1.7155 9.3369 1.7C9.32649 1.6843 9.31472 1.66996 9.30141 1.65659C9.28829 1.64322 9.27382 1.6314 9.2582 1.62093C9.24277 1.61047 9.22637 1.60174 9.20901 1.59457C9.19184 1.58721 9.1739 1.58178 9.15557 1.5781C9.13725 1.57442 9.11873 1.57267 9.10002 1.57267H4.81607C4.79736 1.57267 4.77884 1.57442 4.76051 1.5781C4.74219 1.58178 4.72444 1.58721 4.70708 1.59457C4.68991 1.60174 4.67332 1.61047 4.65789 1.62093C4.64226 1.6314 4.6278 1.64322 4.61468 1.65659C4.60137 1.66996 4.5896 1.6843 4.57919 1.7C4.56877 1.7155 4.56009 1.73217 4.55295 1.74942C4.54562 1.76686 4.54022 1.78469 4.53655 1.8031C4.53289 1.82151 4.53115 1.84012 4.53115 1.85891V2.85097H9.38513V1.85891ZM3.0842 15.6459C3.08671 15.7006 3.09443 15.7545 3.10735 15.8076C3.12008 15.8607 3.13783 15.9122 3.1604 15.9618C3.18297 16.0116 3.21017 16.0587 3.24161 16.1033C3.27324 16.1479 3.30874 16.189 3.34809 16.2267C3.38744 16.2643 3.43007 16.2981 3.47598 16.3275C3.5217 16.357 3.56993 16.382 3.62047 16.4023C3.67101 16.4225 3.7229 16.4378 3.77633 16.4481C3.82976 16.4583 3.88378 16.4636 3.93818 16.4634H9.97791C10.0323 16.4636 10.0863 16.4583 10.1398 16.4481C10.1932 16.4378 10.2453 16.4225 10.2958 16.4021C10.3464 16.382 10.3944 16.357 10.4403 16.3275C10.486 16.2979 10.5286 16.2643 10.568 16.2266C10.6073 16.189 10.6428 16.1477 10.6745 16.1033C10.7061 16.0587 10.7331 16.0116 10.7557 15.9618C10.7785 15.912 10.796 15.8607 10.8089 15.8076C10.8217 15.7543 10.8294 15.7004 10.8319 15.6459L11.3352 5.19903H2.58092L3.0842 15.6459ZM1.52537 4.33992C1.52537 4.35872 1.5271 4.37733 1.53077 4.39574C1.53443 4.41415 1.53983 4.43217 1.54716 4.44942C1.5543 4.46686 1.56298 4.48333 1.5734 4.49884C1.58382 4.51453 1.59558 4.52907 1.60889 4.54225C1.62201 4.55562 1.63648 4.56744 1.6521 4.57791C1.66753 4.58837 1.68393 4.59709 1.70129 4.60446C1.71865 4.61163 1.7364 4.61705 1.75473 4.62074C1.77305 4.62442 1.79157 4.62616 1.81028 4.62636H12.1058C12.1245 4.62616 12.143 4.62442 12.1614 4.62074C12.1797 4.61705 12.1976 4.61163 12.2148 4.60446C12.2322 4.59709 12.2486 4.58837 12.2642 4.57791C12.2796 4.56744 12.2941 4.55562 12.3072 4.54225C12.3205 4.52907 12.3323 4.51453 12.3427 4.49884C12.3531 4.48333 12.362 4.46686 12.3691 4.44942C12.3763 4.43217 12.3817 4.41415 12.3853 4.39574C12.389 4.37733 12.3909 4.35872 12.3909 4.33992V3.70988C12.3909 3.69109 12.389 3.67248 12.3853 3.65407C12.3817 3.63566 12.3763 3.61783 12.3691 3.60039C12.362 3.58295 12.3531 3.56647 12.3427 3.55097C12.3323 3.53527 12.3205 3.52074 12.3072 3.50756C12.2941 3.49419 12.2796 3.48236 12.2642 3.4719C12.2486 3.46143 12.2322 3.45271 12.2148 3.44535C12.1976 3.43818 12.1797 3.43275 12.1614 3.42907C12.143 3.42539 12.1245 3.42364 12.1058 3.42364H1.81028C1.79157 3.42364 1.77305 3.42539 1.75473 3.42907C1.7364 3.43275 1.71865 3.43818 1.70129 3.44535C1.68393 3.45271 1.66753 3.46143 1.6521 3.4719C1.63648 3.48236 1.62201 3.49419 1.60889 3.50756C1.59558 3.52074 1.58382 3.53527 1.5734 3.55097C1.56298 3.56647 1.5543 3.58295 1.54697 3.60039C1.53983 3.61783 1.53443 3.63566 1.53077 3.65407C1.5271 3.67248 1.52537 3.69109 1.52537 3.70988V4.33992Z" fill="#888888" stroke="#888888" stroke-width="0.5"/>
</svg>
