<svg width="16" height="16" viewBox="0 0 16 16" fill="none" xmlns="http://www.w3.org/2000/svg">
<g clip-path="url(#clip0_237_1372)">
<mask id="mask0_237_1372" style="mask-type:luminance" maskUnits="userSpaceOnUse" x="-1" y="0" width="17" height="17">
<path d="M15.9922 0.015625H-0.0078125V16.0281H15.9922V0.015625Z" fill="white"/>
</mask>
<g mask="url(#mask0_237_1372)">
<path d="M8.03935 16.017C12.4205 16.017 15.9844 12.428 15.9844 8.0164C15.9844 3.60459 12.4201 0.015625 8.03935 0.015625C3.65837 0.015625 0.0943289 3.60459 0.0943289 8.0164C0.0943289 9.36022 0.43152 10.6846 1.07157 11.8593L-0.022377 15.9709L3.97743 14.8913C5.20505 15.6283 6.60474 16.017 8.03935 16.017ZM8.03935 0.971724C11.8968 0.971724 15.0347 4.13198 15.0347 8.0164C15.0347 11.9006 11.8968 15.0609 8.03935 15.0609C6.71431 15.0609 5.42323 14.6846 4.30556 13.9723L4.12982 13.86L1.32041 14.6184L2.09028 11.7258L1.99074 11.5537C1.37134 10.482 1.04379 9.25863 1.04379 8.01601C1.04379 4.13198 4.1821 0.971724 8.03935 0.971724Z" fill="#313131"/>
</g>
<path d="M2.96402 8.01325C2.96402 8.04608 2.96557 8.07891 2.96885 8.11174C2.97213 8.14456 2.97695 8.177 2.98331 8.20925C2.98968 8.24169 2.99759 8.27355 3.00704 8.30502C3.01649 8.33648 3.02749 8.36756 3.04003 8.39787C3.05257 8.42836 3.06645 8.45808 3.08189 8.48722C3.09732 8.51617 3.1141 8.54433 3.13223 8.57172C3.15056 8.59911 3.16985 8.62553 3.19068 8.65097C3.21152 8.67642 3.23331 8.7009 3.25646 8.72421C3.27961 8.74732 3.30372 8.76947 3.32899 8.79045C3.35446 8.81123 3.38069 8.83085 3.40789 8.84911C3.4349 8.86737 3.46306 8.88427 3.4918 8.89981C3.52074 8.91535 3.55025 8.92953 3.58034 8.94216C3.61063 8.95459 3.6413 8.96566 3.67274 8.97537C3.70399 8.98489 3.73563 8.99286 3.76765 8.99927C3.79987 9.00568 3.83208 9.01053 3.86468 9.01383C3.89709 9.01694 3.92988 9.01869 3.96248 9.01869C3.99527 9.01869 4.02787 9.01694 4.06028 9.01383C4.09288 9.01053 4.12529 9.00568 4.15731 8.99927C4.18933 8.99286 4.22097 8.98489 4.25241 8.97537C4.28366 8.96566 4.31433 8.95459 4.34462 8.94216C4.3749 8.92953 4.40442 8.91535 4.43316 8.89981C4.46209 8.88427 4.49007 8.86737 4.51726 8.84911C4.54446 8.83085 4.5707 8.81123 4.59597 8.79045C4.62124 8.76947 4.64535 8.74732 4.6685 8.72421C4.69165 8.7009 4.71364 8.67642 4.73428 8.65097C4.75511 8.62553 4.77459 8.59911 4.79273 8.57172C4.81086 8.54433 4.82764 8.51617 4.84307 8.48722C4.85851 8.45808 4.8724 8.42836 4.88493 8.39787C4.89747 8.36756 4.90847 8.33648 4.91792 8.30502C4.92737 8.27355 4.93547 8.24169 4.94184 8.20925C4.94821 8.177 4.95303 8.14456 4.95611 8.11174C4.95939 8.07891 4.96094 8.04608 4.96094 8.01325C4.96094 7.98023 4.95939 7.9474 4.95611 7.91457C4.95303 7.88194 4.94821 7.8493 4.94184 7.81706C4.93547 7.78481 4.92737 7.75276 4.91792 7.72129C4.90847 7.68982 4.89747 7.65874 4.88493 7.62844C4.8724 7.59794 4.85851 7.56822 4.84307 7.53928C4.82764 7.51014 4.81086 7.48198 4.79273 7.45459C4.77459 7.4272 4.75511 7.40078 4.73428 7.37533C4.71364 7.34989 4.69165 7.32541 4.6685 7.3023C4.64535 7.27899 4.62124 7.25684 4.59597 7.23586C4.5707 7.21508 4.54446 7.19546 4.51726 7.1772C4.49007 7.15894 4.46209 7.14204 4.43316 7.1265C4.40442 7.11096 4.3749 7.09678 4.34462 7.08435C4.31433 7.07172 4.28366 7.06065 4.25241 7.05094C4.22097 7.04142 4.18933 7.03345 4.15731 7.02704C4.12529 7.02063 4.09288 7.01578 4.06028 7.01267C4.02787 7.00937 3.99527 7.00781 3.96248 7.00781C3.92988 7.00781 3.89709 7.00937 3.86468 7.01267C3.83208 7.01578 3.79987 7.02063 3.76765 7.02704C3.73563 7.03345 3.70399 7.04142 3.67274 7.05094C3.6413 7.06065 3.61063 7.07172 3.58034 7.08435C3.55025 7.09678 3.52074 7.11096 3.4918 7.1265C3.46306 7.14204 3.4349 7.15894 3.40789 7.1772C3.38069 7.19546 3.35446 7.21508 3.32899 7.23586C3.30372 7.25684 3.27961 7.27899 3.25646 7.3023C3.23331 7.32541 3.21152 7.34989 3.19068 7.37533C3.16985 7.40078 3.15056 7.4272 3.13223 7.45459C3.1141 7.48198 3.09732 7.51014 3.08189 7.53928C3.06645 7.56822 3.05257 7.59794 3.04003 7.62844C3.02749 7.65874 3.01649 7.68982 3.00704 7.72129C2.99759 7.75276 2.98968 7.78481 2.98331 7.81706C2.97695 7.8493 2.97213 7.88194 2.96885 7.91457C2.96557 7.9474 2.96402 7.98023 2.96402 8.01325Z" fill="#313131"/>
<path d="M7.03395 8.01364C7.03395 8.04647 7.03549 8.0793 7.03877 8.11212C7.04205 8.14495 7.04668 8.17739 7.05305 8.20983C7.05961 8.24208 7.06752 8.27394 7.07697 8.3054C7.08642 8.33707 7.09741 8.36795 7.10995 8.39845C7.12249 8.42875 7.13638 8.45867 7.15181 8.48761C7.16725 8.51675 7.18403 8.54491 7.20235 8.5723C7.22049 8.59969 7.23997 8.62611 7.26061 8.65156C7.28144 8.677 7.30324 8.70148 7.32639 8.7246C7.34954 8.74791 7.37384 8.77005 7.39911 8.79103C7.42438 8.81181 7.45062 8.83143 7.47782 8.84969C7.50502 8.86795 7.53299 8.88505 7.56192 8.90039C7.59066 8.91593 7.62018 8.93011 7.65046 8.94274C7.68075 8.95536 7.71142 8.96644 7.74267 8.97596C7.77411 8.98547 7.80575 8.99344 7.83777 8.99985C7.86979 9.00626 7.9022 9.01111 7.9348 9.01442C7.9674 9.01752 8 9.01927 8.0326 9.01927C8.06539 9.01927 8.09799 9.01752 8.13059 9.01442C8.163 9.01111 8.19541 9.00626 8.22743 8.99985C8.25964 8.99344 8.29128 8.98547 8.32253 8.97596C8.35378 8.96644 8.38465 8.95536 8.41474 8.94274C8.44502 8.93011 8.47454 8.91593 8.50347 8.90039C8.53221 8.88505 8.56038 8.86795 8.58758 8.84969C8.61478 8.83143 8.64101 8.81181 8.66628 8.79103C8.69155 8.77005 8.71566 8.74791 8.73881 8.7246C8.76196 8.70148 8.78395 8.677 8.80459 8.65156C8.82542 8.62611 8.84491 8.59969 8.86304 8.5723C8.88117 8.54491 8.89796 8.51675 8.91339 8.48761C8.92882 8.45867 8.94271 8.42875 8.95525 8.39845C8.96779 8.36795 8.97878 8.33707 8.98843 8.3054C8.99788 8.27394 9.00579 8.24208 9.01215 8.20983C9.01852 8.17739 9.02334 8.14495 9.02662 8.11212C9.02971 8.0793 9.03125 8.04647 9.03125 8.01364C9.03125 7.98062 9.02971 7.94779 9.02662 7.91496C9.02334 7.88213 9.01852 7.84969 9.01215 7.81745C9.00579 7.78501 8.99788 7.75315 8.98843 7.72168C8.97878 7.69002 8.96779 7.65913 8.95525 7.62864C8.94271 7.59833 8.92882 7.56861 8.91339 7.53948C8.89796 7.51053 8.88117 7.48217 8.86304 7.45478C8.84491 7.42739 8.82542 7.40097 8.80459 7.37553C8.78395 7.35008 8.76196 7.3258 8.73881 7.30249C8.71566 7.27918 8.69155 7.25704 8.66628 7.23625C8.64101 7.21527 8.61478 7.19565 8.58758 7.17739C8.56038 7.15913 8.53221 7.14223 8.50347 7.12669C8.47454 7.11115 8.44502 7.09697 8.41474 7.08435C8.38465 7.07192 8.35378 7.06065 8.32253 7.05113C8.29128 7.04161 8.25964 7.03365 8.22743 7.02724C8.19541 7.02083 8.163 7.01597 8.13059 7.01267C8.09799 7.00956 8.06539 7.00781 8.0326 7.00781C8 7.00781 7.9674 7.00956 7.9348 7.01267C7.9022 7.01597 7.86979 7.02083 7.83777 7.02724C7.80575 7.03365 7.77411 7.04161 7.74267 7.05113C7.71142 7.06065 7.68075 7.07192 7.65046 7.08435C7.62018 7.09697 7.59066 7.11115 7.56192 7.12669C7.53299 7.14223 7.50502 7.15913 7.47782 7.17739C7.45062 7.19565 7.42438 7.21527 7.39911 7.23625C7.37384 7.25704 7.34954 7.27918 7.32639 7.30249C7.30324 7.3258 7.28144 7.35008 7.26061 7.37553C7.23997 7.40097 7.22049 7.42739 7.20235 7.45478C7.18403 7.48217 7.16725 7.51053 7.15181 7.53948C7.13638 7.56861 7.12249 7.59833 7.10995 7.62864C7.09741 7.65913 7.08642 7.69002 7.07697 7.72168C7.06752 7.75315 7.05961 7.78501 7.05305 7.81745C7.04668 7.84969 7.04205 7.88213 7.03877 7.91496C7.03549 7.94779 7.03395 7.98062 7.03395 8.01364Z" fill="#313131"/>
<path d="M11.1125 8.01325C11.1125 8.04608 11.114 8.07891 11.1173 8.11174C11.1204 8.14456 11.1252 8.177 11.1316 8.20925C11.1379 8.24169 11.1458 8.27355 11.1555 8.30502C11.1649 8.33648 11.1759 8.36756 11.1885 8.39787C11.201 8.42836 11.2149 8.45808 11.2303 8.48722C11.2458 8.51617 11.2625 8.54433 11.2807 8.57172C11.2988 8.59911 11.3183 8.62553 11.3391 8.65097C11.3598 8.67642 11.3818 8.7009 11.4049 8.72421C11.428 8.74732 11.4522 8.76947 11.4774 8.79045C11.5027 8.81123 11.5289 8.83085 11.5561 8.84911C11.5833 8.86737 11.6113 8.88427 11.6402 8.89981C11.669 8.91535 11.6985 8.92953 11.7288 8.94216C11.7591 8.95459 11.7897 8.96566 11.821 8.97537C11.8524 8.98489 11.8841 8.99286 11.9161 8.99927C11.9481 9.00568 11.9805 9.01053 12.0129 9.01383C12.0455 9.01694 12.0781 9.01869 12.1109 9.01869C12.1435 9.01869 12.1761 9.01694 12.2087 9.01383C12.2413 9.01053 12.2735 9.00568 12.3057 8.99927C12.3378 8.99286 12.3694 8.98489 12.4007 8.97537C12.4321 8.96566 12.4628 8.95459 12.4931 8.94216C12.5231 8.92953 12.5527 8.91535 12.5816 8.89981C12.6103 8.88427 12.6383 8.86737 12.6655 8.84911C12.6927 8.83085 12.7189 8.81123 12.7442 8.79045C12.7695 8.76947 12.7938 8.74732 12.8169 8.72421C12.8401 8.7009 12.8619 8.67642 12.8827 8.65097C12.9034 8.62553 12.9228 8.59911 12.941 8.57172C12.9593 8.54433 12.9761 8.51617 12.9915 8.48722C13.0069 8.45808 13.0208 8.42836 13.0334 8.39787C13.0459 8.36756 13.0569 8.33648 13.0664 8.30502C13.0758 8.27355 13.0837 8.24169 13.0901 8.20925C13.0965 8.177 13.1013 8.14456 13.1046 8.11174C13.1076 8.07891 13.1094 8.04608 13.1094 8.01325C13.1094 7.98023 13.1076 7.9474 13.1046 7.91457C13.1013 7.88194 13.0965 7.8493 13.0901 7.81706C13.0837 7.78481 13.0758 7.75276 13.0664 7.72129C13.0569 7.68982 13.0459 7.65874 13.0334 7.62844C13.0208 7.59794 13.0069 7.56822 12.9915 7.53928C12.9761 7.51014 12.9593 7.48198 12.941 7.45459C12.9228 7.4272 12.9034 7.40078 12.8827 7.37533C12.8619 7.34989 12.8401 7.32541 12.8169 7.3023C12.7938 7.27899 12.7695 7.25684 12.7442 7.23586C12.7189 7.21508 12.6927 7.19546 12.6655 7.1772C12.6383 7.15894 12.6103 7.14204 12.5816 7.1265C12.5527 7.11096 12.5231 7.09678 12.4931 7.08435C12.4628 7.07172 12.4321 7.06065 12.4007 7.05094C12.3694 7.04142 12.3378 7.03345 12.3057 7.02704C12.2735 7.02063 12.2413 7.01578 12.2087 7.01267C12.1761 7.00937 12.1435 7.00781 12.1109 7.00781C12.0781 7.00781 12.0455 7.00937 12.0129 7.01267C11.9805 7.01578 11.9481 7.02063 11.9161 7.02704C11.8841 7.03345 11.8524 7.04142 11.821 7.05094C11.7897 7.06065 11.7591 7.07172 11.7288 7.08435C11.6985 7.09678 11.669 7.11096 11.6402 7.1265C11.6113 7.14204 11.5833 7.15894 11.5561 7.1772C11.5289 7.19546 11.5027 7.21508 11.4774 7.23586C11.4522 7.25684 11.428 7.27899 11.4049 7.3023C11.3818 7.32541 11.3598 7.34989 11.3391 7.37533C11.3183 7.40078 11.2988 7.4272 11.2807 7.45459C11.2625 7.48198 11.2458 7.51014 11.2303 7.53928C11.2149 7.56822 11.201 7.59794 11.1885 7.62844C11.1759 7.65874 11.1649 7.68982 11.1555 7.72129C11.1458 7.75276 11.1379 7.78481 11.1316 7.81706C11.1252 7.8493 11.1204 7.88194 11.1173 7.91457C11.114 7.9474 11.1125 7.98023 11.1125 8.01325Z" fill="#313131"/>
</g>
<defs>
<clipPath id="clip0_237_1372">
<rect width="16" height="16" fill="white" transform="matrix(-1 0 0 1 16 0)"/>
</clipPath>
</defs>
</svg>
