<svg width="14" height="18" viewBox="0 0 14 18" fill="none" xmlns="http://www.w3.org/2000/svg">
<path d="M1.85716 2.85097H4.00781V1.85891C4.00781 1.83081 4.00916 1.80271 4.01206 1.77481C4.01476 1.7469 4.01881 1.71899 4.0244 1.69147C4.0298 1.66395 4.03675 1.63663 4.04485 1.60969C4.05295 1.58275 4.0624 1.5564 4.07321 1.53043C4.08382 1.50446 4.09578 1.47907 4.10909 1.45426C4.1222 1.42946 4.13667 1.40523 4.1521 1.38198C4.16773 1.35853 4.18451 1.33605 4.20226 1.31434C4.22 1.29244 4.23872 1.27171 4.25858 1.25174C4.27826 1.23198 4.29909 1.21298 4.3207 1.19516C4.3423 1.17733 4.36487 1.16066 4.38802 1.14496C4.41136 1.12926 4.43528 1.11492 4.45997 1.10155C4.48466 1.08837 4.50993 1.07636 4.53578 1.0655C4.56163 1.05484 4.58806 1.04535 4.61487 1.03702C4.64149 1.02888 4.66869 1.02209 4.69608 1.01647C4.72367 1.01105 4.75125 1.00698 4.77903 1.00407C4.807 1.00136 4.83497 1 4.86294 1H9.14689C9.17487 1 9.20284 1.00136 9.23061 1.00407C9.25858 1.00698 9.28617 1.01105 9.31356 1.01647C9.34115 1.02209 9.36815 1.02888 9.39497 1.03702C9.42178 1.04535 9.44801 1.05484 9.47405 1.0655C9.4999 1.07636 9.52517 1.08837 9.54987 1.10155C9.57456 1.11492 9.59848 1.12926 9.62162 1.14496C9.64497 1.16066 9.66753 1.17733 9.68914 1.19516C9.71074 1.21298 9.73138 1.23198 9.75125 1.25174C9.77112 1.27171 9.78983 1.29244 9.80758 1.31434C9.82533 1.33605 9.84211 1.35853 9.85754 1.38198C9.87317 1.40523 9.88744 1.42946 9.90075 1.45426C9.91387 1.47907 9.92583 1.50446 9.93663 1.53043C9.94743 1.5564 9.95689 1.58275 9.96499 1.60969C9.97309 1.63663 9.97984 1.66395 9.98544 1.69147C9.99084 1.71899 9.99508 1.7469 9.99778 1.77481C10.0005 1.80271 10.002 1.83081 10.002 1.85891V2.85097H12.1527C12.1807 2.85097 12.2086 2.85233 12.2364 2.85523C12.2644 2.85795 12.292 2.86202 12.3193 2.86764C12.3469 2.87306 12.3739 2.87985 12.4008 2.88818C12.4276 2.89632 12.454 2.90581 12.4798 2.91647C12.5057 2.92733 12.531 2.93934 12.5557 2.95271C12.5803 2.96589 12.6043 2.98043 12.6276 2.99593C12.6508 3.01163 12.6733 3.02829 12.6949 3.04612C12.7165 3.06415 12.7372 3.08295 12.757 3.10291C12.7769 3.12267 12.7956 3.1436 12.8134 3.16531C12.8311 3.18702 12.8479 3.2095 12.8633 3.23295C12.879 3.2564 12.8934 3.28043 12.9065 3.30523C12.9198 3.33004 12.9318 3.35543 12.9424 3.3814C12.9532 3.40736 12.9627 3.43372 12.9708 3.46066C12.9789 3.4876 12.9856 3.51492 12.9912 3.54244C12.9966 3.56996 13.0009 3.59787 13.0036 3.62578C13.0063 3.65388 13.0078 3.68178 13.0078 3.71008V4.33992C13.0068 4.37229 13.0043 4.40446 12.9999 4.43643C12.9957 4.46841 12.9897 4.50019 12.9818 4.5314C12.9741 4.56279 12.9648 4.5936 12.9536 4.62403C12.9426 4.65426 12.9301 4.68391 12.9158 4.71298C12.9015 4.74186 12.8857 4.76996 12.8685 4.79729C12.8514 4.82442 12.8327 4.85078 12.8126 4.87597C12.7925 4.90116 12.7711 4.92539 12.7486 4.94826C12.7258 4.97112 12.7021 4.99283 12.677 5.01318C12.6521 5.03353 12.6261 5.05233 12.5991 5.06996C12.572 5.0874 12.5443 5.10349 12.5155 5.11802C12.4868 5.13256 12.4573 5.14535 12.4272 5.15678C12.3971 5.16802 12.3666 5.17771 12.3354 5.18566C12.3043 5.1936 12.2727 5.2 12.2408 5.20465C12.209 5.20911 12.1772 5.21202 12.145 5.21318C12.1129 5.21434 12.0807 5.21376 12.0487 5.21124C12.0167 5.20891 11.9849 5.20484 11.9532 5.19903L11.4486 15.6734C11.4465 15.719 11.4422 15.7641 11.4359 15.8091C11.4293 15.8541 11.4208 15.8986 11.4102 15.9428C11.3994 15.987 11.3867 16.0306 11.372 16.0736C11.3572 16.1167 11.3404 16.1587 11.3215 16.2002C11.3028 16.2415 11.2821 16.2818 11.2594 16.3213C11.2368 16.3607 11.2123 16.3988 11.1861 16.4359C11.1598 16.4729 11.1318 16.5085 11.1021 16.5428C11.0724 16.5773 11.0414 16.6101 11.0086 16.6415C10.9758 16.6729 10.9416 16.7025 10.906 16.7306C10.8705 16.7587 10.8336 16.7851 10.7954 16.8097C10.7574 16.8341 10.7183 16.8568 10.678 16.8777C10.6378 16.8984 10.5965 16.9172 10.5545 16.9341C10.5126 16.951 10.4698 16.9659 10.4264 16.9787C10.383 16.9913 10.339 17.0019 10.2945 17.0107C10.2501 17.0192 10.2053 17.0256 10.1602 17.0298C10.1153 17.0341 10.0701 17.0362 10.0248 17.036H3.98505C3.93991 17.0362 3.89458 17.0341 3.84963 17.0298C3.80449 17.0256 3.75974 17.0192 3.71537 17.0105C3.67101 17.0019 3.62703 16.9913 3.58362 16.9785C3.54022 16.9657 3.4974 16.951 3.45534 16.9341C3.41348 16.9172 3.3722 16.8984 3.33208 16.8775C3.29176 16.8568 3.2526 16.8341 3.2146 16.8095C3.17641 16.7849 3.13956 16.7587 3.10407 16.7306C3.06858 16.7025 3.03424 16.6727 3.00164 16.6415C2.96885 16.6101 2.9376 16.5771 2.90789 16.5428C2.87838 16.5085 2.8504 16.4729 2.82417 16.4359C2.79794 16.3988 2.77344 16.3605 2.75087 16.3211C2.72811 16.2818 2.70747 16.2415 2.68856 16.2002C2.66985 16.1587 2.65307 16.1167 2.63821 16.0736C2.62336 16.0306 2.61063 15.9872 2.60002 15.943C2.58941 15.8988 2.58092 15.8541 2.57436 15.8091C2.568 15.7641 2.56375 15.719 2.56163 15.6736L2.057 5.19903C2.02537 5.20484 1.99354 5.20891 1.96152 5.21124C1.92949 5.21357 1.89728 5.21415 1.86526 5.21298C1.83304 5.21202 1.80102 5.20911 1.76919 5.20446C1.73736 5.2 1.70592 5.1936 1.67486 5.18566C1.64361 5.17752 1.61314 5.16802 1.58285 5.15659C1.55276 5.14535 1.52344 5.13236 1.49469 5.11783C1.46595 5.10329 1.43818 5.0874 1.41117 5.06977C1.38416 5.05233 1.35812 5.03333 1.33304 5.01298C1.30816 4.99264 1.28443 4.97112 1.26167 4.94806C1.2391 4.92519 1.21769 4.90116 1.19763 4.87597C1.17757 4.85058 1.15885 4.82442 1.14169 4.79709C1.12432 4.76996 1.1087 4.74186 1.09443 4.71279C1.08015 4.68391 1.06761 4.65426 1.05662 4.62384C1.04543 4.5936 1.03617 4.56279 1.02826 4.5314C1.02054 4.5 1.01456 4.46841 1.01032 4.43643C1.00588 4.40426 1.00338 4.37229 1.00241 4.33992V3.70988C1.00241 3.68178 1.00376 3.65368 1.00665 3.62578C1.00936 3.59787 1.0136 3.56996 1.019 3.54244C1.0244 3.51492 1.03135 3.4876 1.03945 3.46066C1.04755 3.43372 1.057 3.40736 1.0678 3.3814C1.07841 3.35543 1.09037 3.33004 1.10368 3.30523C1.1168 3.28043 1.13127 3.2564 1.1467 3.23295C1.16233 3.20969 1.17892 3.18702 1.19666 3.16531C1.21441 3.1436 1.23331 3.12287 1.25299 3.10291C1.27286 3.08295 1.2935 3.06415 1.3151 3.04632C1.3369 3.02849 1.35928 3.01163 1.38262 2.99612C1.40577 2.98043 1.42969 2.96609 1.45438 2.95271C1.47907 2.93953 1.50434 2.92752 1.53019 2.91667C1.55604 2.90581 1.58247 2.89632 1.60909 2.88818C1.6359 2.88004 1.6631 2.87306 1.69049 2.86764C1.71788 2.86221 1.74566 2.85795 1.77344 2.85523C1.80122 2.85233 1.82919 2.85097 1.85716 2.85097ZM9.432 1.85891C9.43181 1.84012 9.43007 1.82151 9.42641 1.8031C9.42274 1.78469 9.41734 1.76686 9.4102 1.74942C9.40307 1.73217 9.39419 1.7155 9.38378 1.7C9.37336 1.6843 9.36159 1.66996 9.34828 1.65659C9.33517 1.64322 9.3207 1.6314 9.30507 1.62093C9.28964 1.61047 9.27324 1.60174 9.25588 1.59457C9.23872 1.58721 9.22078 1.58178 9.20245 1.5781C9.18412 1.57442 9.16561 1.57267 9.14689 1.57267H4.86294C4.84423 1.57267 4.82571 1.57442 4.80739 1.5781C4.78906 1.58178 4.77132 1.58721 4.75395 1.59457C4.73679 1.60174 4.7202 1.61047 4.70476 1.62093C4.68914 1.6314 4.67467 1.64322 4.66155 1.65659C4.64824 1.66996 4.63648 1.6843 4.62606 1.7C4.61564 1.7155 4.60696 1.73217 4.59983 1.74942C4.5925 1.76686 4.5871 1.78469 4.58343 1.8031C4.57976 1.82151 4.57803 1.84012 4.57803 1.85891V2.85097H9.432V1.85891ZM3.13108 15.6459C3.13358 15.7006 3.1413 15.7545 3.15422 15.8076C3.16696 15.8607 3.1847 15.9122 3.20727 15.9618C3.22984 16.0116 3.25704 16.0587 3.28848 16.1033C3.32012 16.1479 3.35561 16.189 3.39497 16.2267C3.43432 16.2643 3.47695 16.2981 3.52286 16.3275C3.56858 16.357 3.6168 16.382 3.66734 16.4023C3.71788 16.4225 3.76977 16.4378 3.82321 16.4481C3.87664 16.4583 3.93065 16.4636 3.98505 16.4634H10.0248C10.0792 16.4636 10.1332 16.4583 10.1866 16.4481C10.2401 16.4378 10.2921 16.4225 10.3427 16.4021C10.3932 16.382 10.4413 16.357 10.4872 16.3275C10.5329 16.2979 10.5755 16.2643 10.6149 16.2266C10.6542 16.189 10.6897 16.1477 10.7214 16.1033C10.753 16.0587 10.78 16.0116 10.8026 15.9618C10.8253 15.912 10.8429 15.8607 10.8558 15.8076C10.8685 15.7543 10.8763 15.7004 10.8788 15.6459L11.382 5.19903H2.6278L3.13108 15.6459ZM1.57224 4.33992C1.57224 4.35872 1.57398 4.37733 1.57764 4.39574C1.58131 4.41415 1.58671 4.43217 1.59404 4.44942C1.60118 4.46686 1.60986 4.48333 1.62027 4.49884C1.63069 4.51453 1.64246 4.52907 1.65577 4.54225C1.66889 4.55562 1.68335 4.56744 1.69898 4.57791C1.71441 4.58837 1.73081 4.59709 1.74817 4.60446C1.76553 4.61163 1.78328 4.61705 1.8016 4.62074C1.81993 4.62442 1.83844 4.62616 1.85716 4.62636H12.1527C12.1714 4.62616 12.1899 4.62442 12.2082 4.62074C12.2266 4.61705 12.2445 4.61163 12.2617 4.60446C12.279 4.59709 12.2954 4.58837 12.3111 4.57791C12.3265 4.56744 12.341 4.55562 12.3541 4.54225C12.3674 4.52907 12.3791 4.51453 12.3896 4.49884C12.4 4.48333 12.4089 4.46686 12.416 4.44942C12.4231 4.43217 12.4285 4.41415 12.4322 4.39574C12.4359 4.37733 12.4378 4.35872 12.4378 4.33992V3.70988C12.4378 3.69109 12.4359 3.67248 12.4322 3.65407C12.4285 3.63566 12.4231 3.61783 12.416 3.60039C12.4089 3.58295 12.4 3.56647 12.3896 3.55097C12.3791 3.53527 12.3674 3.52074 12.3541 3.50756C12.341 3.49419 12.3265 3.48236 12.3111 3.4719C12.2954 3.46143 12.279 3.45271 12.2617 3.44535C12.2445 3.43818 12.2266 3.43275 12.2082 3.42907C12.1899 3.42539 12.1714 3.42364 12.1527 3.42364H1.85716C1.83844 3.42364 1.81993 3.42539 1.8016 3.42907C1.78328 3.43275 1.76553 3.43818 1.74817 3.44535C1.73081 3.45271 1.71441 3.46143 1.69898 3.4719C1.68335 3.48236 1.66889 3.49419 1.65577 3.50756C1.64246 3.52074 1.63069 3.53527 1.62027 3.55097C1.60986 3.56647 1.60118 3.58295 1.59385 3.60039C1.58671 3.61783 1.58131 3.63566 1.57764 3.65407C1.57398 3.67248 1.57224 3.69109 1.57224 3.70988V4.33992Z" fill="#313131" stroke="#313131" stroke-width="0.5"/>
</svg>
