<svg width="127" height="31" viewBox="0 0 127 31" fill="none" xmlns="http://www.w3.org/2000/svg">
<path d="M123.478 0C126.701 0.629174 127.078 2.725 126.989 7.40268H119.397V5.16891C119.044 4.19833 118.668 3.82897 117.65 3.63207H106.352C105.312 3.90212 104.988 4.04089 104.573 5.0773V9.32102C104.666 10.1977 104.928 10.6707 106.088 10.872H123.133C125.235 11.0742 125.975 11.8957 126.94 13.9541V25.7258C126.561 27.8396 125.873 28.5867 123.44 29H100.324C98.1802 28.6819 97.5809 27.8188 97 25.7698V21.7343H104.516V23.7295C104.541 24.6052 104.861 24.9875 106.142 25.4128H117.676C118.855 25.1448 119.193 24.7618 119.421 23.8049V16.3073C119.046 15.1516 118.694 14.8088 117.874 14.5596H100.59C98.6189 14.0762 97.6436 13.906 97.0252 11.5011V3.46575C97.4091 1.41504 98.0375 0.520198 100.532 0H123.478Z" fill="#D9D9D9"/>
<rect x="23.9116" y="2.61353" width="28.6942" height="5.0141" fill="#F30000"/>
<rect x="24.7909" y="13.1272" width="25.0234" height="5.0141" fill="#1600C9"/>
<circle cx="53.9761" cy="5.31154" r="3.80764" fill="white"/>
<circle cx="53.9758" cy="5.31283" r="2.18319" fill="#071451"/>
<circle cx="48.8866" cy="15.6372" r="3.80764" fill="white"/>
<circle cx="48.8862" cy="15.6385" r="2.18319" fill="#071451"/>
<path fill-rule="evenodd" clip-rule="evenodd" d="M0.0287032 2.8885L24.9639 2.5813C27.2379 3.25009 27.5885 3.93142 27.9947 5.30604L28.2516 28.0627C27.4489 30.2256 24.5016 30.9394 24.5016 30.9394H0L0.0287032 2.8885ZM20.086 6.3457H7.16659V27.1715H20.086C20.6383 27.1715 21.086 26.7238 21.086 26.1715V7.3457C21.086 6.79342 20.6383 6.3457 20.086 6.3457Z" fill="#D9D9D9"/>
<path fill-rule="evenodd" clip-rule="evenodd" d="M65.9883 1.50391C65.3256 1.50391 64.7883 2.04117 64.7883 2.70391V28.3697C64.7883 29.0324 65.3256 29.5697 65.9883 29.5697H91.9109C92.5736 29.5697 93.1109 29.0324 93.1109 28.3697V2.70391C93.1109 2.04116 92.5736 1.50391 91.9109 1.50391H65.9883ZM73.0776 5.06198C72.5253 5.06198 72.0776 5.5097 72.0776 6.06198V25.1124C72.0776 25.6647 72.5253 26.1124 73.0776 26.1124H84.9878C85.5401 26.1124 85.9878 25.6647 85.9878 25.1124V6.06198C85.9878 5.5097 85.5401 5.06198 84.9878 5.06198H73.0776Z" fill="#D9D9D9"/>
</svg>
