<svg width="13" height="19" viewBox="0 0 13 19" fill="none" xmlns="http://www.w3.org/2000/svg">
<g clip-path="url(#clip0_237_335)">
<mask id="mask0_237_335" style="mask-type:luminance" maskUnits="userSpaceOnUse" x="0" y="0" width="13" height="19">
<path d="M0.078125 0H12.9036V18.9943H0.078125V0Z" fill="white"/>
</mask>
<g mask="url(#mask0_237_335)">
<path d="M11.7378 16.6408C11.7378 17.2898 11.2148 17.8175 10.5718 17.8175H2.4102C1.7672 17.8175 1.24416 17.2898 1.24416 16.6408V5.85985H3.33812C4.6239 5.85985 5.6702 4.80406 5.6702 3.50638V1.17673H10.5718C11.2148 1.17673 11.7378 1.70451 11.7378 2.35324V16.6408ZM4.50416 2.05293V3.50638C4.50416 4.15533 3.98112 4.68311 3.33812 4.68311H2.01031L4.50416 2.05293ZM10.5718 0H4.83702L0.078125 5.01893V16.6408C0.078125 17.9385 1.1242 18.9943 2.4102 18.9943H10.5718C11.8576 18.9943 12.9039 17.9385 12.9039 16.6408V2.35324C12.9039 1.05578 11.8576 0 10.5718 0Z" fill="#D9D9D9"/>
</g>
<path d="M9.83664 6.76562H3.57521C3.25325 6.76562 2.99219 7.02906 2.99219 7.35388C2.99219 7.67893 3.25325 7.94236 3.57521 7.94236H9.83664C10.1586 7.94236 10.4194 7.67893 10.4194 7.35388C10.4194 7.02906 10.1586 6.76562 9.83664 6.76562Z" fill="#D9D9D9"/>
<path d="M9.75829 9.11719H3.49708C3.17513 9.11719 2.91406 9.38062 2.91406 9.70544C2.91406 10.0305 3.17513 10.2939 3.49708 10.2939H9.75829C10.0802 10.2939 10.3413 10.0305 10.3413 9.70544C10.3413 9.38062 10.0802 9.11719 9.75829 9.11719Z" fill="#D9D9D9"/>
<path d="M9.67235 11.4688H3.41114C3.08919 11.4688 2.82812 11.7322 2.82812 12.0572C2.82812 12.3823 3.08919 12.6455 3.41114 12.6455H9.67235C9.9943 12.6455 10.2554 12.3823 10.2554 12.0572C10.2554 11.7322 9.9943 11.4688 9.67235 11.4688Z" fill="#D9D9D9"/>
<path d="M9.58641 13.8281H3.32521C3.00325 13.8281 2.74219 14.0916 2.74219 14.4166C2.74219 14.7414 3.00325 15.0049 3.32521 15.0049H9.58641C9.90837 15.0049 10.1694 14.7414 10.1694 14.4166C10.1694 14.0916 9.90837 13.8281 9.58641 13.8281Z" fill="#D9D9D9"/>
</g>
<defs>
<clipPath id="clip0_237_335">
<rect width="13" height="19" fill="white"/>
</clipPath>
</defs>
</svg>
