<svg width="16" height="16" viewBox="0 0 16 16" fill="none" xmlns="http://www.w3.org/2000/svg">
<g clip-path="url(#clip0_237_440)">
<path fill-rule="evenodd" clip-rule="evenodd" d="M7.29157 9.92766V0.704668C7.29157 0.518133 7.36391 0.33912 7.4972 0.205633C7.6305 0.076196 7.80951 0 7.99624 0C8.18297 0 8.36198 0.076196 8.49527 0.205633C8.62857 0.33912 8.70091 0.518133 8.70091 0.704668V9.92766C8.70091 9.92766 10.0458 8.58295 10.7962 7.83237C10.9295 7.69907 11.1087 7.62674 11.2952 7.62674C11.482 7.62674 11.661 7.69907 11.7943 7.83237C12.0686 8.10668 12.0686 8.55247 11.7943 8.82658L8.46865 12.1524C8.34288 12.2782 8.17525 12.3466 7.99624 12.3466C7.81723 12.3466 7.64959 12.2782 7.52382 12.1524L4.19821 8.82658C3.9239 8.55247 3.9239 8.10668 4.19821 7.83237C4.3315 7.69907 4.51051 7.62674 4.69724 7.62674C4.88378 7.62674 5.06298 7.69907 5.19628 7.83237C5.95052 8.58295 7.29157 9.92766 7.29157 9.92766Z" fill="#888888"/>
<path fill-rule="evenodd" clip-rule="evenodd" d="M16 14.6687C16 15.0231 15.859 15.362 15.6076 15.6097C15.3561 15.861 15.0172 16.002 14.6667 16.002H1.33333C0.978973 16.002 0.640046 15.861 0.392361 15.6097C0.14101 15.3581 0 15.0192 0 14.6687V10.6344C0 10.2459 0.316165 9.92969 0.704668 9.92969C0.891397 9.92969 1.07041 10.0059 1.2039 10.1353C1.33719 10.2686 1.40953 10.4478 1.40953 10.6344V13.9297C1.40953 14.2991 1.7066 14.5964 2.0762 14.5964H13.9238C14.2934 14.5964 14.5905 14.2991 14.5905 13.9297V10.6344C14.5905 10.4478 14.6667 10.2686 14.7961 10.1353C14.9296 10.002 15.1086 9.92969 15.2953 9.92969C15.6838 9.92969 16 10.2459 16 10.6344V14.6687Z" fill="#888888"/>
</g>
<defs>
<clipPath id="clip0_237_440">
<rect width="16" height="16" fill="white" transform="matrix(-1 0 0 1 16 0)"/>
</clipPath>
</defs>
</svg>
