<svg width="53" height="66" viewBox="0 0 53 66" fill="none" xmlns="http://www.w3.org/2000/svg">
<mask id="mask0_237_737" style="mask-type:luminance" maskUnits="userSpaceOnUse" x="28" y="10" width="13" height="12">
<path d="M28.4297 10.4141H40.5936V21.7061H28.4297V10.4141Z" fill="white"/>
</mask>
<g mask="url(#mask0_237_737)">
<mask id="mask1_237_737" style="mask-type:luminance" maskUnits="userSpaceOnUse" x="28" y="10" width="13" height="12">
<path d="M33.6902 21.6258H40.4691V17.9365H33.6902C32.9043 17.9365 32.2648 17.2924 32.2648 16.5015V10.4531H28.6016V16.5015C28.6016 19.3275 30.8838 21.6258 33.6902 21.6258Z" fill="white"/>
</mask>
<g mask="url(#mask1_237_737)">
<path d="M28.6016 10.4531V21.6258H40.4691V10.4531H28.6016Z" fill="url(#paint0_linear_237_737)"/>
</g>
</g>
<mask id="mask2_237_737" style="mask-type:luminance" maskUnits="userSpaceOnUse" x="5" y="17" width="5" height="7">
<path d="M5.28906 17.6016H8.77956V18.0411H5.28906V17.6016ZM5.28906 18.0411H9.217V18.4807H5.28906V18.0411ZM8.34438 18.4807H9.65369V18.9203H8.34438V18.4807ZM8.78031 18.9203H9.65369V19.7987H8.78031V18.9203ZM8.34438 19.7987H9.65369V20.2382H8.34438V19.7987ZM5.28906 18.4807H6.16244V20.2382H5.28906V18.4807ZM5.28906 20.2382H9.217V20.6778H5.28906V20.2382ZM5.28906 20.6778H8.78031V21.1174H5.28906V20.6778ZM5.28906 21.1174H6.16244V23.7541H5.28906V21.1174Z" fill="white"/>
</mask>
<g mask="url(#mask2_237_737)">
<path d="M5.28906 17.6016V23.7541H9.65369V17.6016H5.28906Z" fill="url(#paint1_linear_237_737)"/>
</g>
<mask id="mask3_237_737" style="mask-type:luminance" maskUnits="userSpaceOnUse" x="10" y="17" width="5" height="7">
<path d="M10.5234 17.6016H14.0139V18.0411H10.5234V17.6016ZM10.5234 18.0411H14.4514V18.4807H10.5234V18.0411ZM13.5788 18.4807H14.8881V18.9203H13.5788V18.4807ZM14.0154 18.9203H14.8881V22.4354H14.0154V18.9203ZM13.5788 22.4354H14.8881V22.8749H13.5788V22.4354ZM10.5234 18.4807H11.3968V22.8749H10.5234V18.4807ZM10.5234 22.8749H14.4514V23.3145H10.5234V22.8749ZM10.5234 23.3145H14.0154V23.7541H10.5234V23.3145Z" fill="white"/>
</mask>
<g mask="url(#mask3_237_737)">
<path d="M10.5234 17.6016V23.7541H14.8881V17.6016H10.5234Z" fill="url(#paint2_linear_237_737)"/>
</g>
<mask id="mask4_237_737" style="mask-type:luminance" maskUnits="userSpaceOnUse" x="15" y="17" width="6" height="7">
<path d="M15.7578 17.6016H20.1217V18.4807H15.7578V17.6016ZM15.7578 18.4807H16.6312V20.2382H15.7578V18.4807ZM15.7578 20.2382H19.2498V21.1174H15.7578V20.2382ZM15.7578 21.1174H16.6312V23.7541H15.7578V21.1174Z" fill="white"/>
</mask>
<g mask="url(#mask4_237_737)">
<path d="M15.7578 17.6016V23.7541H20.1217V17.6016H15.7578Z" fill="url(#paint3_linear_237_737)"/>
</g>
<mask id="mask5_237_737" style="mask-type:luminance" maskUnits="userSpaceOnUse" x="0" y="1" width="53" height="64">
<path d="M0.242188 1.46094H52.9526V64.5406H0.242188V1.46094Z" fill="white"/>
</mask>
<g mask="url(#mask5_237_737)">
<mask id="mask6_237_737" style="mask-type:luminance" maskUnits="userSpaceOnUse" x="0" y="1" width="53" height="64">
<path d="M49.9492 31.9284C49.3247 31.5961 48.6587 31.428 47.9928 31.4022V20.2752C47.9928 18.6386 47.3321 17.0369 46.1796 15.8817L33.5896 3.26562C32.4273 2.10129 30.8857 1.46094 29.2476 1.46094H11.2476C7.97352 1.46094 5.30889 4.14401 5.30889 7.44082V13.8778H3.65264C1.80557 13.8778 0.304688 15.3904 0.304688 17.2506V24.1028C0.304688 25.9623 1.80708 27.4757 3.65264 27.4757H5.30889V31.2858C4.62859 31.3117 3.9513 31.4851 3.31927 31.8281C1.59741 32.762 0.527934 34.6762 0.527934 36.8231V56.9279C0.527934 61.1251 3.5395 64.5406 7.24193 64.5406H46.0597C49.7622 64.5406 52.7737 61.1251 52.7737 56.9279V36.9425C52.7737 34.7781 51.6914 32.857 49.9492 31.9284ZM2.50246 24.1028V17.2506C2.50246 16.6118 3.01834 16.0916 3.65414 16.0916H21.7628C22.3971 16.0916 22.9137 16.6118 22.9137 17.2506V24.1028C22.9137 24.7416 22.3978 25.2618 21.7628 25.2618H3.65264C3.01834 25.2618 2.50246 24.7416 2.50246 24.1028ZM21.7628 27.4741C23.6098 27.4741 25.1115 25.9615 25.1115 24.1013V17.2506C25.1115 15.3904 23.6083 13.8778 21.7628 13.8778H8.97285V7.44082C8.97285 6.17837 9.9933 5.14941 11.2476 5.14941H29.2476C29.9113 5.14941 30.535 5.4095 31.0041 5.88025L43.595 18.4971C44.0686 18.9717 44.3288 19.6029 44.3288 20.2752V32.8334L29.7921 42.7976C28.1276 43.9369 25.9683 43.9536 24.2879 42.841L8.97285 32.6935V27.4741H21.7628ZM49.8436 56.9279C49.8436 59.4984 48.1459 61.5898 46.0605 61.5898H7.24193C5.15503 61.5898 3.45805 59.4984 3.45805 56.9279V36.8223C3.45805 35.5553 4.10441 34.753 4.71004 34.4252C4.91368 34.3149 5.1769 34.2191 5.48009 34.2191C5.75462 34.2191 6.06159 34.2982 6.38741 34.5127L22.6791 45.3073C25.3551 47.0816 28.7943 47.0519 31.4423 45.2381L46.8901 34.6488C47.5764 34.1788 48.1874 34.3286 48.5795 34.537C49.1905 34.8625 49.8444 35.6656 49.8444 36.9425V56.9279H49.8436Z" fill="white"/>
</mask>
<g mask="url(#mask6_237_737)">
<path d="M0.304688 1.46094V64.5406H52.7737V1.46094H0.304688Z" fill="url(#paint4_linear_237_737)"/>
</g>
</g>
<mask id="mask7_237_737" style="mask-type:luminance" maskUnits="userSpaceOnUse" x="5" y="37" width="8" height="10">
<path d="M5.25781 37.8672H12.7879V46.2389H5.25781V37.8672Z" fill="white"/>
</mask>
<g mask="url(#mask7_237_737)">
<mask id="mask8_237_737" style="mask-type:luminance" maskUnits="userSpaceOnUse" x="5" y="38" width="8" height="9">
<path d="M6.1918 38.2095C5.62161 38.5168 5.26562 39.113 5.26562 39.767V46.0975H7.46415V40.6028L11.3876 43.2365L12.6071 41.3953L7.9921 38.297C7.45133 37.9342 6.76274 37.9023 6.1918 38.2095Z" fill="white"/>
</mask>
<g mask="url(#mask8_237_737)">
<path d="M5.26562 37.8984V46.0937H12.6071V37.8984H5.26562Z" fill="url(#paint5_linear_237_737)"/>
</g>
</g>
<defs>
<linearGradient id="paint0_linear_237_737" x1="34.5353" y1="10.4531" x2="34.5353" y2="21.6258" gradientUnits="userSpaceOnUse">
<stop stop-color="#00C2FF"/>
<stop offset="1" stop-color="#BD51FF"/>
</linearGradient>
<linearGradient id="paint1_linear_237_737" x1="7.47138" y1="17.6016" x2="7.47138" y2="23.7541" gradientUnits="userSpaceOnUse">
<stop stop-color="#00C2FF"/>
<stop offset="1" stop-color="#BD51FF"/>
</linearGradient>
<linearGradient id="paint2_linear_237_737" x1="12.7058" y1="17.6016" x2="12.7058" y2="23.7541" gradientUnits="userSpaceOnUse">
<stop stop-color="#00C2FF"/>
<stop offset="1" stop-color="#BD51FF"/>
</linearGradient>
<linearGradient id="paint3_linear_237_737" x1="17.9397" y1="17.6016" x2="17.9397" y2="23.7541" gradientUnits="userSpaceOnUse">
<stop stop-color="#00C2FF"/>
<stop offset="1" stop-color="#BD51FF"/>
</linearGradient>
<linearGradient id="paint4_linear_237_737" x1="26.5392" y1="1.46094" x2="26.5392" y2="64.5406" gradientUnits="userSpaceOnUse">
<stop stop-color="#00C2FF"/>
<stop offset="1" stop-color="#BD51FF"/>
</linearGradient>
<linearGradient id="paint5_linear_237_737" x1="8.93638" y1="37.8984" x2="8.93638" y2="46.0937" gradientUnits="userSpaceOnUse">
<stop stop-color="#00C2FF"/>
<stop offset="1" stop-color="#BD51FF"/>
</linearGradient>
</defs>
</svg>
