<svg width="15" height="16" viewBox="0 0 15 16" fill="none" xmlns="http://www.w3.org/2000/svg">
<g clip-path="url(#clip0_237_1396)">
<path d="M7.49381 11.9097C7.49443 11.9097 7.49484 11.9097 7.49484 11.9097C8.01284 11.9097 8.54268 11.57 8.55452 10.9207V3.43855L9.9695 4.77817C10.4626 5.23081 11.0917 5.11465 11.4589 4.76776C11.8256 4.42066 11.9473 3.82495 11.4668 3.35482L8.2443 0.303919C8.15995 0.223337 8.05668 0.157693 7.92786 0.102661C7.52705 -0.0655777 7.05144 0.0148075 6.74331 0.302936L3.52668 3.34873C3.21542 3.6231 3.12525 4.05353 3.29667 4.44504C3.46455 4.82809 3.83377 5.07063 4.23624 5.07063C4.51841 5.07082 4.812 4.97294 5.02019 4.77562L6.43205 3.43855V10.9201C6.44244 11.5691 6.97436 11.9093 7.49381 11.9097Z" fill="#313131"/>
<mask id="mask0_237_1396" style="mask-type:luminance" maskUnits="userSpaceOnUse" x="-1" y="9" width="16" height="8">
<path d="M-0.0078125 9.91406H14.9922V16.1027H-0.0078125V9.91406Z" fill="white"/>
</mask>
<g mask="url(#mask0_237_1396)">
<path d="M-0.015625 10.9186V12.0302C-0.015625 14.2672 1.90633 16.087 4.26858 16.087H10.7153C13.0776 16.087 14.9995 14.2672 14.9995 12.0302V10.9186C14.9995 10.3647 14.5235 9.91406 13.9388 9.91406C13.3537 9.91406 12.8777 10.3647 12.8777 10.9186V12.0302C12.8777 13.1591 11.9076 14.0776 10.7153 14.0776H4.26858C3.07634 14.0776 2.10622 13.1591 2.10622 12.0302V10.9186C2.10622 10.3647 1.63019 9.91406 1.04509 9.91406C0.460397 9.91406 -0.015625 10.3647 -0.015625 10.9186Z" fill="#313131"/>
</g>
</g>
<defs>
<clipPath id="clip0_237_1396">
<rect width="15" height="16" fill="white"/>
</clipPath>
</defs>
</svg>
