<svg width="20" height="16" viewBox="0 0 20 16" fill="none" xmlns="http://www.w3.org/2000/svg">
<g clip-path="url(#clip0_237_725)">
<mask id="mask0_237_725" style="mask-type:luminance" maskUnits="userSpaceOnUse" x="0" y="0" width="20" height="17">
<path d="M0 0.0078125H20V16.0078H0V0.0078125Z" fill="white"/>
</mask>
<g mask="url(#mask0_237_725)">
<path d="M17.8909 0.674479H8.66633C8.62269 0.674479 8.57928 0.678814 8.53636 0.687485C8.49344 0.695915 8.45173 0.70868 8.41122 0.725298C8.37095 0.742157 8.33237 0.76263 8.29596 0.786955C8.25979 0.811281 8.22603 0.838978 8.19517 0.869807C8.16406 0.900876 8.13657 0.934354 8.11222 0.970963C8.08787 1.00733 8.06737 1.04563 8.05049 1.08609C8.03385 1.12655 8.02107 1.16822 8.01264 1.21109C8.00395 1.2542 7.99986 1.29755 7.99986 1.34115C7.99986 1.38498 8.00395 1.42833 8.01264 1.4712C8.02107 1.51432 8.03385 1.55598 8.05049 1.59644C8.06737 1.63691 8.08787 1.6752 8.11222 1.71157C8.13657 1.74794 8.16406 1.78166 8.19517 1.81273C8.22603 1.84355 8.25979 1.87125 8.29596 1.89558C8.33237 1.9199 8.37095 1.94038 8.41122 1.95723C8.45173 1.97385 8.49344 1.98662 8.53636 1.99505C8.57928 2.00372 8.62269 2.00781 8.66633 2.00781H17.8909C17.942 2.00805 17.9924 2.01287 18.0423 2.02299C18.0922 2.03286 18.1407 2.04755 18.1877 2.06706C18.2347 2.08657 18.2793 2.11065 18.3218 2.13883C18.364 2.16725 18.4033 2.19929 18.4392 2.23541C18.4751 2.27154 18.5074 2.31056 18.5356 2.35295C18.5639 2.39534 18.5877 2.44013 18.6073 2.4871C18.6268 2.53407 18.6415 2.58272 18.6514 2.63257C18.6613 2.68267 18.6663 2.73301 18.6663 2.78382V13.8985C18.6663 13.9495 18.6613 13.9999 18.6514 14.05C18.6415 14.0998 18.6268 14.1482 18.6073 14.1954C18.5877 14.2424 18.5639 14.2872 18.5356 14.3296C18.5074 14.3717 18.4751 14.411 18.4392 14.4471C18.4033 14.483 18.364 14.5153 18.3218 14.5435C18.2793 14.5719 18.2347 14.5957 18.1877 14.6152C18.1407 14.6347 18.0922 14.6497 18.0423 14.6595C17.9924 14.6694 17.942 14.6745 17.8909 14.6745H2.10865C2.05753 14.6745 2.00714 14.6694 1.95722 14.6595C1.90731 14.6497 1.85884 14.6347 1.81182 14.6152C1.76481 14.5957 1.7202 14.5719 1.67776 14.5435C1.63556 14.5153 1.59626 14.483 1.56033 14.4471C1.5244 14.411 1.49209 14.3717 1.46388 14.3296C1.43567 14.2872 1.4118 14.2424 1.39226 14.1954C1.37273 14.1482 1.35802 14.0998 1.34814 14.05C1.33825 13.9999 1.33319 13.9495 1.33319 13.8985V2.11716C1.33319 2.06634 1.33825 2.016 1.34814 1.96591C1.35802 1.91605 1.37273 1.8674 1.39226 1.82043C1.4118 1.77347 1.43567 1.72867 1.46388 1.68628C1.49209 1.64389 1.5244 1.60487 1.56033 1.56875C1.59626 1.53262 1.63556 1.50059 1.67776 1.47217C1.7202 1.44399 1.76481 1.4199 1.81182 1.40039C1.85884 1.38089 1.90731 1.36619 1.95722 1.35632C2.00714 1.3462 2.05753 1.34139 2.10865 1.34115H4.88185L6.04721 4.25589C6.07205 4.31778 6.10532 4.37462 6.14704 4.42641C6.18899 4.47843 6.23746 4.52299 6.29268 4.56032C6.3479 4.59765 6.40721 4.62583 6.47087 4.64534C6.53477 4.66485 6.59987 4.67472 6.66643 4.67448H16.6662C16.7101 4.67448 16.7535 4.67038 16.7964 4.66171C16.8393 4.65328 16.881 4.64052 16.9215 4.6239C16.9618 4.60704 17.0004 4.58657 17.0366 4.56224C17.073 4.53792 17.1067 4.51022 17.1376 4.47939C17.1687 4.44832 17.1962 4.4146 17.2205 4.37824C17.2449 4.34187 17.2654 4.30357 17.2823 4.26311C17.2989 4.22265 17.3117 4.18098 17.3201 4.13787C17.3288 4.095 17.3329 4.05165 17.3329 4.00781C17.3329 3.96422 17.3288 3.92087 17.3201 3.87775C17.3117 3.83488 17.2989 3.79322 17.2823 3.75275C17.2654 3.71229 17.2449 3.674 17.2205 3.63763C17.1962 3.60102 17.1687 3.56754 17.1376 3.53647C17.1067 3.50565 17.073 3.47795 17.0366 3.45362C17.0004 3.4293 16.9618 3.40882 16.9215 3.39196C16.881 3.37535 16.8393 3.36258 16.7964 3.35415C16.7535 3.34548 16.7101 3.34115 16.6662 3.34115H7.11781L5.95245 0.426647C5.92761 0.364749 5.89434 0.307909 5.85262 0.256127C5.81067 0.204103 5.7622 0.159547 5.70698 0.122215C5.65176 0.0848838 5.59245 0.0564637 5.52879 0.0369551C5.46489 0.0176873 5.39979 0.0078125 5.33324 0.0078125H2.10865C2.03945 0.00805333 1.97073 0.0114252 1.90201 0.0184098C1.83329 0.0251536 1.76505 0.0352692 1.69729 0.0489975C1.62953 0.0624849 1.56274 0.0793443 1.49667 0.0993347C1.4306 0.119325 1.36574 0.142687 1.30184 0.169181C1.23818 0.195674 1.17573 0.225298 1.11497 0.257812C1.05396 0.290327 0.994888 0.325972 0.9375 0.364267C0.880112 0.402562 0.824653 0.443747 0.771364 0.487581C0.718075 0.531416 0.666956 0.577658 0.618007 0.62655C0.5693 0.675443 0.523003 0.726502 0.479118 0.779971C0.435233 0.833198 0.394242 0.888593 0.355903 0.946155C0.317564 1.00348 0.282118 1.06248 0.249566 1.12342C0.217014 1.18435 0.187355 1.24673 0.161073 1.31056C0.134549 1.37438 0.111159 1.43917 0.0911458 1.50516C0.0711323 1.5714 0.0542535 1.63835 0.0407504 1.70603C0.0272473 1.77371 0.01712 1.84187 0.0103684 1.91051C0.00337579 1.97939 0 2.04827 0 2.11716V13.8985C0 13.9676 0.00337579 14.0365 0.0103684 14.1051C0.01712 14.174 0.0272473 14.2422 0.0407504 14.3098C0.0542535 14.3775 0.0711323 14.4445 0.0911458 14.5105C0.111159 14.5767 0.134549 14.6415 0.161073 14.7053C0.187355 14.7691 0.217014 14.8315 0.249566 14.8924C0.282118 14.9531 0.317564 15.0124 0.355903 15.0697C0.394242 15.1273 0.435233 15.1827 0.479118 15.2359C0.523003 15.2894 0.5693 15.3404 0.618007 15.3893C0.666956 15.4382 0.718075 15.4845 0.771364 15.5283C0.824653 15.5721 0.880112 15.6133 0.9375 15.6516C0.994888 15.6899 1.05396 15.7255 1.11497 15.7581C1.17573 15.7906 1.23818 15.8202 1.30184 15.8467C1.36574 15.8732 1.4306 15.8963 1.49667 15.9165C1.56274 15.9365 1.62953 15.9534 1.69729 15.9669C1.76505 15.9804 1.83329 15.9907 1.90201 15.9975C1.97073 16.0044 2.03945 16.0078 2.10865 16.0078H17.8909C17.9601 16.0078 18.0288 16.0044 18.0975 15.9975C18.1662 15.9907 18.2345 15.9804 18.3022 15.9669C18.37 15.9534 18.4368 15.9365 18.5028 15.9165C18.5689 15.8963 18.6338 15.8732 18.6977 15.8467C18.7613 15.8202 18.8238 15.7906 18.8845 15.7581C18.9456 15.7255 19.0046 15.6899 19.062 15.6516C19.1194 15.6133 19.1749 15.5721 19.2282 15.5283C19.2814 15.4845 19.3326 15.4382 19.3815 15.3893C19.4302 15.3404 19.4765 15.2894 19.5204 15.2359C19.5643 15.1827 19.6053 15.1273 19.6436 15.0697C19.682 15.0124 19.7174 14.9531 19.75 14.8924C19.7825 14.8315 19.8122 14.7691 19.8384 14.7053C19.865 14.6415 19.8884 14.5767 19.9084 14.5105C19.9284 14.4445 19.9453 14.3775 19.9588 14.3098C19.9723 14.2422 19.9824 14.174 19.9891 14.1051C19.9961 14.0365 19.9995 13.9676 19.9995 13.8985V2.78382C19.9995 2.71494 19.9961 2.64606 19.9891 2.57718C19.9824 2.50854 19.9723 2.44038 19.9588 2.3727C19.9453 2.30502 19.9284 2.23806 19.9084 2.17183C19.8884 2.10584 19.865 2.04105 19.8384 1.97722C19.8122 1.9134 19.7825 1.85102 19.75 1.79009C19.7174 1.72915 19.682 1.67014 19.6436 1.61282C19.6053 1.55526 19.564 1.49986 19.5204 1.44664C19.4765 1.39317 19.4302 1.34211 19.3815 1.29322C19.3326 1.24433 19.2814 1.19808 19.2282 1.15425C19.1749 1.11041 19.1194 1.06923 19.062 1.03093C19.0046 0.992639 18.9456 0.956994 18.8845 0.924479C18.8238 0.891965 18.7613 0.86234 18.6977 0.835847C18.6338 0.809354 18.5689 0.785992 18.5028 0.766001C18.4368 0.746011 18.37 0.729152 18.3022 0.715664C18.2345 0.701936 18.1662 0.69182 18.0975 0.685076C18.0288 0.678092 17.9601 0.67472 17.8909 0.674479Z" fill="#555555"/>
</g>
<path d="M10.0025 13.3411C10.0464 13.3411 10.0896 13.3371 10.1325 13.3284C10.1754 13.32 10.2171 13.3072 10.2576 13.2906C10.2981 13.2737 10.3365 13.2532 10.3729 13.2289C10.4093 13.2046 10.443 13.1769 10.4739 13.1461C10.5048 13.115 10.5325 13.0813 10.5569 13.0449C10.5812 13.0085 10.6017 12.9702 10.6183 12.9298C10.6352 12.8893 10.6478 12.8476 10.6564 12.8045C10.6649 12.7617 10.6692 12.7183 10.6692 12.6745V10.3411H13.0024C13.0462 10.3411 13.0897 10.3371 13.1326 10.3284C13.1755 10.32 13.2172 10.3072 13.2575 10.2906C13.298 10.2737 13.3363 10.2532 13.3727 10.2289C13.4091 10.2046 13.4429 10.1769 13.4738 10.1461C13.5049 10.115 13.5324 10.0813 13.5567 10.0449C13.5811 10.0085 13.6016 9.97024 13.6184 9.92978C13.6351 9.88932 13.6479 9.84765 13.6563 9.80454C13.6647 9.76167 13.6691 9.71831 13.6691 9.67448C13.6691 9.63089 13.6647 9.58753 13.6563 9.54442C13.6479 9.50155 13.6351 9.45988 13.6184 9.41942C13.6016 9.37896 13.5811 9.34066 13.5567 9.3043C13.5324 9.26769 13.5049 9.23421 13.4738 9.20314C13.4429 9.17231 13.4091 9.14461 13.3727 9.12029C13.3363 9.09596 13.298 9.07549 13.2575 9.05863C13.2172 9.04201 13.1755 9.02925 13.1326 9.02082C13.0897 9.01215 13.0462 9.00781 13.0024 9.00781H10.6692V6.67448C10.6692 6.63089 10.6649 6.58753 10.6564 6.54442C10.6478 6.50155 10.6352 6.45988 10.6183 6.41942C10.6017 6.37896 10.5812 6.34066 10.5569 6.3043C10.5325 6.26769 10.5048 6.23421 10.4739 6.20314C10.443 6.17231 10.4093 6.14461 10.3729 6.12029C10.3365 6.09596 10.2981 6.07549 10.2576 6.05863C10.2171 6.04201 10.1754 6.02925 10.1325 6.02082C10.0896 6.01215 10.0464 6.00781 10.0025 6.00781C9.95862 6.00781 9.91546 6.01215 9.87254 6.02082C9.82962 6.02925 9.78791 6.04201 9.7474 6.05863C9.70689 6.07549 9.66855 6.09596 9.63214 6.12029C9.59573 6.14461 9.56197 6.17231 9.53111 6.20314C9.50024 6.23421 9.47251 6.26769 9.44816 6.3043C9.4238 6.34066 9.40331 6.37896 9.38667 6.41942C9.36979 6.45988 9.35725 6.50155 9.34857 6.54442C9.34013 6.58753 9.33579 6.63089 9.33579 6.67448V9.00781H7.00265C6.95877 9.00781 6.91536 9.01215 6.87244 9.02082C6.82952 9.02925 6.78781 9.04201 6.74754 9.05863C6.70703 9.07549 6.66869 9.09596 6.63228 9.12029C6.59587 9.14461 6.56211 9.17231 6.53125 9.20314C6.50014 9.23421 6.47266 9.26769 6.4483 9.3043C6.42395 9.34066 6.40345 9.37896 6.38657 9.41942C6.36994 9.45988 6.35716 9.50155 6.34872 9.54442C6.34028 9.58753 6.33594 9.63089 6.33594 9.67448C6.33594 9.71831 6.34028 9.76167 6.34872 9.80454C6.35716 9.84765 6.36994 9.88932 6.38657 9.92978C6.40345 9.97024 6.42395 10.0085 6.4483 10.0449C6.47266 10.0813 6.50014 10.115 6.53125 10.1461C6.56211 10.1769 6.59587 10.2046 6.63228 10.2289C6.66869 10.2532 6.70703 10.2737 6.74754 10.2906C6.78781 10.3072 6.82952 10.32 6.87244 10.3284C6.91536 10.3371 6.95877 10.3411 7.00265 10.3411H9.33579V12.6745C9.33579 12.7183 9.34013 12.7617 9.34857 12.8045C9.35725 12.8476 9.36979 12.8893 9.38667 12.9298C9.40331 12.9702 9.4238 13.0085 9.44816 13.0449C9.47251 13.0813 9.50024 13.115 9.53111 13.1461C9.56197 13.1769 9.59573 13.2046 9.63214 13.2289C9.66855 13.2532 9.70689 13.2737 9.7474 13.2906C9.78791 13.3072 9.82962 13.32 9.87254 13.3284C9.91546 13.3371 9.95862 13.3411 10.0025 13.3411Z" fill="#555555"/>
</g>
<defs>
<clipPath id="clip0_237_725">
<rect width="20" height="16" fill="white"/>
</clipPath>
</defs>
</svg>
