<svg width="15" height="16" viewBox="0 0 15 16" fill="none" xmlns="http://www.w3.org/2000/svg">
<g clip-path="url(#clip0_237_490)">
<path d="M1.33415 4.61872C1.53807 4.31594 1.96496 4.24769 2.25362 4.45086C2.56111 4.65285 2.64585 5.09074 2.42469 5.39511C1.64024 6.48995 1.23219 7.87328 1.3686 9.34074C1.62441 12.1233 3.89024 14.3653 6.70194 14.6356C10.4159 14.9896 13.5509 11.937 13.2278 8.26158C12.972 5.27705 10.4331 2.94947 7.41748 2.88261V3.96178C7.41748 4.34868 6.97497 4.58459 6.65025 4.38281L3.83996 2.6467C3.51524 2.44332 3.51524 1.98836 3.83996 1.80344L6.65025 0.0659428C6.9906 -0.135843 7.41748 0.10007 7.41748 0.486776V1.56753C11.0639 1.61733 14.097 4.28182 14.5395 7.89035C15.0854 12.3749 11.4389 16.1868 6.95755 16.0021C3.2422 15.8328 0.191921 12.8483 0.00522232 9.1715C-0.0797138 7.46813 0.430503 5.89987 1.33415 4.61872Z" fill="#888888"/>
</g>
<defs>
<clipPath id="clip0_237_490">
<rect width="15" height="16" fill="white" transform="matrix(-1 0 0 1 15 0)"/>
</clipPath>
</defs>
</svg>
