<svg width="17" height="16" viewBox="0 0 17 16" fill="none" xmlns="http://www.w3.org/2000/svg">
<g clip-path="url(#clip0_237_431)">
<path d="M0.953125 8C0.953125 3.5897 4.54282 0 8.95312 0C13.3634 0 16.9531 3.5897 16.9531 8C16.9531 12.4103 13.3634 16 8.95313 16C8.90895 16.0006 8.86516 15.9969 8.82176 15.9888C8.77836 15.9807 8.73611 15.9684 8.69502 15.952C8.65413 15.9356 8.61516 15.9151 8.57813 15.891C8.54128 15.8667 8.50714 15.8391 8.4755 15.8081C8.44406 15.777 8.41609 15.7432 8.3912 15.7066C8.36651 15.6701 8.34568 15.6314 8.3287 15.5907C8.31154 15.55 8.29861 15.5079 8.28993 15.4645C8.28125 15.4213 8.27701 15.3775 8.27701 15.3333C8.27701 15.2892 8.28125 15.2454 8.28993 15.2022C8.29861 15.1588 8.31154 15.1167 8.3287 15.076C8.34568 15.0353 8.36651 14.9965 8.3912 14.9601C8.41609 14.9234 8.44406 14.8897 8.4755 14.8586C8.50714 14.8275 8.54128 14.8 8.57813 14.7757C8.61516 14.7515 8.65413 14.7311 8.69502 14.7147C8.73611 14.6983 8.77836 14.686 8.82176 14.6779C8.86516 14.6698 8.90895 14.6661 8.95313 14.6667C12.6427 14.6667 15.6198 11.6896 15.6198 8C15.6198 4.31038 12.6427 1.33333 8.95312 1.33333C5.2635 1.33333 2.28646 4.31038 2.28646 8C2.28646 9.67458 2.90721 11.1937 3.92323 12.3632L5.61979 10.6667L5.61979 14.6667H1.61979L2.97917 13.3073C1.72338 11.8937 0.953125 10.0359 0.953125 8Z" fill="#888888"/>
</g>
<defs>
<clipPath id="clip0_237_431">
<rect width="16" height="16" fill="white" transform="matrix(0 1 1 0 0.953125 0)"/>
</clipPath>
</defs>
</svg>
