<svg width="19" height="17" viewBox="0 0 19 17" fill="none" xmlns="http://www.w3.org/2000/svg">
<path d="M17.6513 9.42363L1.73766 16.0532C1.73762 16.0533 1.73758 16.0533 1.73754 16.0533L1.73738 16.0534L1.69892 15.9611C1.56615 16.0168 1.42078 16.0115 1.29508 15.9528L17.6513 9.42363ZM17.6513 9.42363L17.7148 9.39716L17.7269 9.3921M17.6513 9.42363L17.7047 9.29219M17.6513 9.42363L17.6526 9.42668L17.7269 9.3921M17.6513 9.42363L17.7672 9.37292M17.9882 8.47159C17.9842 8.46556 17.9768 8.4547 17.9661 8.44339L17.9617 8.43731C17.9598 8.43485 17.9573 8.43179 17.9543 8.42843C17.9501 8.42343 17.9459 8.41901 17.9436 8.41664L17.943 8.41594C17.9418 8.41465 17.941 8.4138 17.9405 8.41327C17.9398 8.41249 17.9397 8.41239 17.9399 8.4126C17.9343 8.4056 17.9287 8.40003 17.9266 8.39798L17.9232 8.3937L17.9166 8.3878L17.9116 8.38292L17.9095 8.38075L17.907 8.3782L17.9008 8.37196L17.9011 8.37161L17.8961 8.36758L17.8925 8.36393C17.8908 8.3622 17.8882 8.35979 17.8852 8.35712C17.8821 8.35437 17.8792 8.35202 17.877 8.35023L17.8707 8.34537C17.8696 8.34449 17.8688 8.34389 17.8683 8.34351L17.8687 8.3431L17.8598 8.33643L17.8538 8.33182L17.8455 8.32545L17.8455 8.32541L17.8428 8.32352L17.8342 8.31747L17.8247 8.31075L17.8173 8.30555L17.8144 8.30424C17.8104 8.3014 17.8017 8.29548 17.7907 8.29044C17.7902 8.29024 17.7898 8.29005 17.7894 8.28986L17.7748 8.28301L17.774 8.28263L17.7621 8.27705L17.7518 8.27224L17.7506 8.27167L17.7505 8.27166L17.7505 8.27164L17.7505 8.27163L17.7505 8.27162L17.75 8.27143L17.7495 8.27114L17.7492 8.27102L17.7492 8.27098L17.7462 8.26957L2.05046 0.953273L2.05047 0.953248L2.04832 0.952307C1.81165 0.848671 1.53375 0.901142 1.35528 1.0914C1.17636 1.28052 1.13639 1.56383 1.25405 1.79583L1.25407 1.79587L4.68997 8.56311L0.979265 15.1825L17.9894 8.72834C17.9874 8.7205 17.9859 8.71131 17.9839 8.70324L18.0817 8.68257L18.0817 8.68253L18.0817 8.6825L18.0817 8.68246L18.0817 8.68242L18.0817 8.68239L18.0817 8.68235L18.0817 8.68231L18.0817 8.68228L18.0816 8.68224L18.0816 8.6822L18.0816 8.68217L18.0816 8.68213L18.0816 8.68209L18.0816 8.68205L18.0816 8.68202L18.0816 8.68198L18.0816 8.68194L18.0816 8.68191L18.0816 8.68187L18.0816 8.68183L18.0816 8.6818L18.0815 8.68176L18.0815 8.68172L18.0815 8.68169L18.0815 8.68165L18.0815 8.68161L18.0815 8.68158L18.0815 8.68154L18.0815 8.6815L18.0815 8.68147L18.0815 8.68143L18.0815 8.68139L18.0815 8.68136L18.0814 8.68132L18.0814 8.68128L18.0814 8.68125L18.0814 8.68121L18.0814 8.68117L18.0814 8.68114L18.0814 8.6811L18.0814 8.68106L18.0814 8.68103L18.0814 8.68099L18.0814 8.68095L18.0814 8.68091L18.0814 8.68088L18.0813 8.68084L18.0813 8.6808L18.0813 8.68077L18.0813 8.68073L18.0813 8.68069L18.0813 8.68066L18.0813 8.68062L18.0813 8.68058L18.0813 8.68055L18.0813 8.68051L18.0813 8.68047L18.0813 8.68044L18.0813 8.6804L18.0812 8.68036L18.0812 8.68033L18.0812 8.68029L18.0812 8.68025L18.0812 8.68022L18.0812 8.68018L18.0812 8.68014L18.0812 8.68011L18.0812 8.68007L18.0812 8.68003L18.0812 8.68L18.0812 8.67996L18.0812 8.67992L18.0811 8.67989L18.0811 8.67985L18.0811 8.67981L18.0811 8.67978L18.0811 8.67974L18.0811 8.6797L18.0811 8.67967L18.0811 8.67963L18.0811 8.67959L18.0811 8.67955L18.0811 8.67952L18.0811 8.67948L18.0811 8.67944L18.081 8.67941L18.081 8.67937L18.081 8.67933L18.081 8.67932L18.081 8.6793L18.081 8.67926L18.081 8.67922L18.081 8.67919L18.081 8.67915L18.081 8.67911L18.081 8.67908L18.081 8.67904L18.081 8.679L18.081 8.67897L18.0809 8.67893L18.0809 8.67889L18.0809 8.67886L18.0809 8.67882L18.0809 8.67878L18.0809 8.67875L18.0809 8.67871L18.0809 8.67867L18.0809 8.67864L18.0809 8.6786L18.0809 8.67856L18.0809 8.67853L18.0809 8.67849L18.0808 8.67845L18.0808 8.67842L18.0808 8.67838L18.0808 8.67834L18.0808 8.67831L18.0808 8.67827L18.0808 8.67823L18.0808 8.67819L18.0808 8.67816L18.0808 8.67812L18.0808 8.67808L18.0808 8.67805L18.0807 8.67801L18.0807 8.67797L18.0807 8.67794L18.0807 8.6779L18.0807 8.67786L18.0807 8.67783L18.0807 8.67779L18.0807 8.67775L18.0807 8.67772L18.0807 8.67768L18.0807 8.67764L18.0807 8.67761L18.0807 8.67757L18.0806 8.67753L18.0806 8.6775L18.0806 8.67746L18.0806 8.67742L18.0806 8.67739L18.0806 8.67735L18.0806 8.67731L18.0806 8.67728L18.0806 8.67724L18.0806 8.6772L18.0806 8.67717L18.0806 8.67713L18.0806 8.67709L18.0805 8.67706L18.0805 8.67702L18.0805 8.67698L18.0805 8.67695L18.0805 8.67691L18.0805 8.67687L18.0805 8.67683L18.0805 8.6768L18.0805 8.67676L18.0805 8.67672L18.0805 8.67669L18.0805 8.67665L18.0805 8.67661L18.0804 8.67658L18.0804 8.67654L18.0804 8.6765L18.0804 8.67647L18.0804 8.67643L18.0804 8.67639L18.0804 8.67636L18.0804 8.67632L18.0804 8.67628L18.0804 8.67625L18.0804 8.67621L18.0804 8.67617L18.0804 8.67614L18.0803 8.6761L18.0803 8.67606L18.0803 8.67603L18.0803 8.67599L18.0803 8.67595L18.0803 8.67592L18.0803 8.67588L18.0803 8.67584L18.0803 8.67581L18.0803 8.67577L18.0803 8.67573L18.0803 8.67569L18.0803 8.67566L18.0802 8.67562L18.0802 8.67558L18.0802 8.67555L18.0802 8.67551L18.0802 8.67547L18.0802 8.67544L18.0802 8.6754L18.0802 8.67536L18.0802 8.67533L18.0802 8.67529L18.0802 8.67525L18.0802 8.67522L18.0802 8.67518L18.0801 8.67514L18.0801 8.67511L18.0801 8.67507L18.0801 8.67503L18.0801 8.675L18.0801 8.67496L18.0801 8.67492L18.0801 8.67489L18.0801 8.67485L18.0801 8.67481L18.0801 8.67478L18.0801 8.67474L18.0801 8.6747L18.08 8.67467L18.08 8.67463L18.08 8.67459L18.08 8.67456L18.08 8.67452L18.08 8.67448L18.08 8.67445L18.08 8.67441L18.08 8.67437L18.08 8.67434L18.08 8.6743L18.08 8.67426L18.08 8.67422L18.0799 8.67419L18.0799 8.67415L18.0799 8.67411L18.0799 8.67408L18.0799 8.67404L18.0799 8.674L18.0799 8.67397L18.0799 8.67393L18.0799 8.67389L18.0799 8.67386L18.0799 8.67382L18.0799 8.67378L18.0798 8.67375L18.0798 8.67371L18.0798 8.67367L18.0798 8.67364L18.0798 8.6736L18.0798 8.67356L18.0798 8.67353L18.0798 8.67349L18.0798 8.67345L18.0798 8.67342L18.0798 8.67338L18.0798 8.67334L18.0798 8.67331L18.0797 8.67327L18.0797 8.67323L18.0797 8.6732L18.0797 8.67316L18.0797 8.67312L18.0797 8.67309L18.0797 8.67305L18.0797 8.67301L18.0797 8.67298L18.0797 8.67294L18.0797 8.6729L18.0797 8.67286L18.0797 8.67283L18.0796 8.67279L18.0796 8.67275L18.0796 8.67272L18.0796 8.67268L18.0796 8.67264L18.0796 8.67261L18.0796 8.67257L18.0796 8.67253L18.0796 8.6725L18.0796 8.67246L18.0796 8.67242L18.0796 8.67239L18.0796 8.67235L18.0795 8.67231L18.0795 8.67228L18.0795 8.67224L18.0795 8.6722L18.0795 8.67217L18.0795 8.67213L18.0795 8.67209L18.0795 8.67206L18.0795 8.67202L18.0795 8.67198L18.0795 8.67195L18.0795 8.67191L18.0795 8.67187L18.0794 8.67184L18.0794 8.6718L18.0794 8.67176L18.0794 8.67172L18.0794 8.67169L18.0794 8.67165L18.0794 8.67161L18.0794 8.67158L18.0794 8.67154L18.0794 8.6715L18.0794 8.67147L18.0794 8.67143L18.0794 8.67139L18.0793 8.67136L18.0793 8.67132L18.0793 8.67128L18.0793 8.67125L18.0793 8.67121L18.0793 8.67117L18.0793 8.67114L18.0793 8.6711L18.0793 8.67106L18.0793 8.67103L18.0793 8.67099L18.0793 8.67095L18.0793 8.67092L18.0792 8.67088L18.0792 8.67084L18.0792 8.67081L18.0792 8.67077L18.0792 8.67073L18.0792 8.6707L18.0792 8.67066L18.0792 8.67062L18.0792 8.67059L18.0792 8.67055L18.0792 8.67051L18.0792 8.67048L18.0791 8.67044L18.0791 8.6704L18.0791 8.67036L18.0791 8.67033L18.0791 8.67029L18.0791 8.67025L18.0791 8.67022L18.0791 8.67018L18.0791 8.67014L18.0791 8.67011L18.0791 8.67007L18.0791 8.67003L18.0791 8.67L18.079 8.66996L18.079 8.66992L18.079 8.66989L18.079 8.66985L18.079 8.66981L18.079 8.66978L18.079 8.66974L18.079 8.6697L18.079 8.66967L18.079 8.66963L18.079 8.66959L18.079 8.66956L18.079 8.66952L18.0789 8.66948L18.0789 8.66945L18.0789 8.66941L18.0789 8.66937L18.0789 8.66934L18.0789 8.6693L18.0789 8.66926L18.0789 8.66923L18.0789 8.66919L18.0789 8.66915L18.0789 8.66912L18.0789 8.66908L18.0789 8.66904L18.0788 8.669L18.0788 8.66897L18.0788 8.66893L18.0788 8.66889L18.0788 8.66886L18.0788 8.66882L18.0788 8.66878L18.0788 8.66875L18.0788 8.66871L18.0788 8.66867L18.0788 8.66864L18.0788 8.6686L18.0788 8.66856L18.0787 8.66853L18.0787 8.66849L18.0787 8.66845L18.0787 8.66842L18.0787 8.66838L18.0787 8.66834L18.0787 8.66831L18.0787 8.66827L18.0787 8.66823L18.0787 8.6682L18.0787 8.66816L18.0787 8.66812L18.0787 8.66809L18.0786 8.66805L18.0786 8.66801L18.0786 8.66798L18.0786 8.66794L18.0786 8.6679L18.0786 8.66787L18.0786 8.66783L18.0786 8.66779L18.0786 8.66776L18.0786 8.66772L18.0786 8.66768L18.0786 8.66764L18.0786 8.66761L18.0785 8.66757L18.0785 8.66753L18.0785 8.6675L18.0785 8.66746L18.0785 8.66742L18.0785 8.66739L18.0785 8.66735L18.0785 8.66731L18.0785 8.66728L18.0785 8.66724L18.0785 8.6672L18.0785 8.66717L18.0785 8.66713L18.0784 8.66709L18.0784 8.66706L18.0784 8.66702L18.0784 8.66698L18.0784 8.66695L18.0784 8.66691L18.0784 8.66687L18.0784 8.66684L18.0784 8.6668L18.0784 8.66676L18.0784 8.66673L18.0784 8.66669L18.0784 8.66665L18.0783 8.66662L18.0783 8.66658L18.0783 8.66654L18.0783 8.6665L18.0783 8.66647L18.0783 8.66643L18.0783 8.66639L18.0783 8.66636L18.0783 8.66632L18.0783 8.66628L18.0783 8.66625L18.0783 8.66621L18.0782 8.66617L18.0782 8.66614L18.0782 8.6661L18.0782 8.66606L18.0782 8.66603L18.0782 8.66599L18.0782 8.66595L18.0782 8.66592L18.0782 8.66588L18.0782 8.66584L18.0782 8.66581L18.0782 8.66577L18.0782 8.66573L18.0781 8.6657L18.0781 8.66566L18.0781 8.66562L18.0781 8.66559L18.0781 8.66555L18.0781 8.66551L18.0781 8.66548L18.0781 8.66544L18.0781 8.6654L18.0781 8.66537L18.0781 8.66533L18.0781 8.66529L18.0781 8.66526L18.078 8.66522L18.078 8.66518L18.078 8.66514L18.078 8.66511L18.078 8.66507L18.078 8.66503L18.078 8.665L18.078 8.66496L18.078 8.66492L18.078 8.66489L18.078 8.66485L18.078 8.66481L18.078 8.66478L18.0779 8.66474L18.0779 8.6647L18.0779 8.66467L18.0779 8.66463L18.0779 8.66459L18.0779 8.66456L18.0779 8.66452L18.0779 8.66448L18.0779 8.66445L18.0779 8.66441L18.0779 8.66437L18.0779 8.66434L18.0779 8.6643L18.0778 8.66426L18.0778 8.66423L18.0778 8.66419L18.0778 8.66415L18.0778 8.66412L18.0778 8.66408L18.0778 8.66404L18.0778 8.66401L18.0778 8.66397L18.0778 8.66393L18.0778 8.6639L18.0778 8.66386L18.0778 8.66382L18.0777 8.66378L18.0777 8.66375L18.0785 8.66358L18.0743 8.6514L18.0723 8.64492C18.0713 8.64167 18.0695 8.6357 18.0674 8.62966L18.0671 8.62869L18.063 8.61765L18.0596 8.6083L18.0569 8.60087L18.0552 8.59788L18.0535 8.59306C18.0529 8.59146 18.0521 8.58955 18.0512 8.58741C18.0503 8.58527 18.0492 8.58289 18.048 8.58036L18.0479 8.5802L18.0474 8.57891L18.0446 8.57136C18.0433 8.56807 18.0415 8.5637 18.0392 8.55884L17.949 8.60197M17.9882 8.47159C17.9914 8.47623 17.9945 8.4811 17.9965 8.4841L18.0011 8.49118L18.0053 8.49729L18.0078 8.50222C18.0078 8.50227 18.0078 8.50232 18.0079 8.50238L18.0109 8.5071C18.0122 8.50931 18.014 8.51227 18.016 8.51575L18.0188 8.5209L18.0186 8.52097L18.0217 8.52668L18.0224 8.52781C18.024 8.53069 18.0266 8.53529 18.029 8.54001L18.0307 8.54275L18.0308 8.54292C18.0327 8.54609 18.0379 8.55478 18.0423 8.56596L17.949 8.60197M17.9882 8.47159C17.9884 8.47178 17.9885 8.47197 17.9886 8.47215L17.9888 8.47243L17.9057 8.52803L17.9878 8.47101C17.988 8.47121 17.9881 8.4714 17.9882 8.47159ZM17.949 8.60197C17.9506 8.60537 17.9519 8.60893 17.9532 8.61247C17.9547 8.61661 17.9562 8.62073 17.9582 8.6246L17.9284 8.5641C17.9304 8.56822 17.9328 8.57248 17.9351 8.57672C17.937 8.5801 17.9389 8.58346 17.9406 8.58673C17.9417 8.58901 17.943 8.59111 17.9443 8.59314C17.9461 8.5961 17.9478 8.59891 17.949 8.60197ZM17.7047 9.29219L17.7575 9.37506C17.7537 9.37749 17.7499 9.37977 17.7461 9.3819C17.7408 9.38482 17.7356 9.38746 17.7302 9.3899L17.7283 9.39147M17.7047 9.29219L17.721 9.28531M17.7047 9.29219L17.721 9.28531M17.7283 9.39147L17.7269 9.3921M17.7283 9.39147L17.7466 9.38298L17.7466 9.38297L17.7466 9.38295L17.7468 9.38289L17.7472 9.38269L17.7487 9.38199L17.7535 9.3797C17.7569 9.37809 17.7625 9.37538 17.7672 9.37292M17.7283 9.39147L17.7281 9.3916L17.7269 9.3921M17.7672 9.37292C17.7787 9.36685 17.7882 9.36049 17.7949 9.3558L17.7957 9.35536L17.8038 9.35102C17.806 9.34977 17.8086 9.34822 17.8114 9.34637C17.8174 9.34288 17.822 9.33964 17.8246 9.33779L17.8297 9.33417L17.8301 9.33482L17.8383 9.32791C17.8387 9.32766 17.8392 9.3273 17.84 9.3268C17.8424 9.32526 17.8505 9.3201 17.8586 9.3135C17.8587 9.31349 17.8587 9.31349 17.8587 9.31348L17.8719 9.30274L17.8719 9.30275L17.8734 9.30146C17.878 9.29762 17.8865 9.29062 17.8947 9.28337C17.9017 9.27749 17.9067 9.27199 17.9086 9.26997C17.9092 9.2693 17.9097 9.26881 17.91 9.26847L17.9101 9.26858L17.9146 9.26387C17.9145 9.26394 17.9146 9.2639 17.9148 9.26368C17.915 9.26351 17.9153 9.26322 17.9157 9.26279L17.9175 9.26104L17.9202 9.25852C17.9234 9.25546 17.9283 9.25067 17.9336 9.24459C17.9416 9.23637 17.9478 9.22822 17.9527 9.22118C17.9547 9.21879 17.9564 9.21674 17.9576 9.21527L17.9619 9.21026L17.9667 9.20499L17.9707 9.19909L17.9762 9.19095L17.9784 9.18806L17.9877 9.17727L17.9895 9.17335C17.9905 9.17213 17.9916 9.17074 17.9928 9.16922L18.0006 9.1591L18.004 9.15105L18.0042 9.15074C18.0062 9.14766 18.012 9.13892 18.017 9.12815C18.0157 9.13074 18.0147 9.13222 18.0163 9.12964C18.0175 9.12763 18.022 9.12044 18.0261 9.11146L18.0269 9.10965L18.031 9.1004L18.036 9.08905L18.0439 9.07208L18.0439 9.07209L18.0446 9.07045L18.0493 9.06005L18.0528 9.05217C18.056 9.04538 18.0609 9.03471 18.065 9.02167C18.0691 9.01094 18.0713 9.00155 18.0726 8.99545L18.0754 8.98604L18.0772 8.9797C18.0806 8.97164 18.0824 8.96447 18.0835 8.95928L18.0838 8.95852L18.0858 8.9466L18.0876 8.93794C18.0885 8.93402 18.0899 8.92772 18.0911 8.92068L17.7672 9.37292ZM17.7672 9.37292C17.7671 9.37297 17.767 9.37303 17.7668 9.37309L17.721 9.28531M17.7672 9.37292L17.721 9.28531M18.0979 8.78332L17.9982 8.79197L18.0994 8.84449L17.9996 8.83813L18.0995 8.84142L18.0994 8.84366C18.0998 8.83736 18.0998 8.83127 18.0999 8.82752L18.0999 8.81868L18.1001 8.81869L18.1 8.8129C18.0997 8.80304 18.0988 8.79281 18.0982 8.787C18.0982 8.78666 18.0981 8.78634 18.0981 8.78604C18.098 8.78489 18.0979 8.78397 18.0979 8.78332ZM18.0934 8.90499C18.0934 8.90476 18.0934 8.90455 18.0934 8.90437C18.0936 8.90288 18.0937 8.90229 18.0937 8.90229C18.0937 8.90229 18.0935 8.90351 18.0932 8.90496L18.0934 8.90499ZM5.75453 7.97042L3.1385 2.81821L14.5859 8.15444L5.75453 7.97042ZM5.72743 9.20061L14.5604 9.38379L2.90262 14.2405L5.72743 9.20061Z" fill="white" stroke="#FCFCFC" stroke-width="0.2"/>
</svg>
