<svg width="16" height="16" viewBox="0 0 16 16" fill="none" xmlns="http://www.w3.org/2000/svg">
<g clip-path="url(#clip0_237_443)">
<path d="M2.84419 16.0377C2.74839 16.0377 2.65299 16.0329 2.55778 16.0236C2.46257 16.0141 2.36794 16.0001 2.27409 15.9815C2.18025 15.9629 2.08757 15.9396 1.99606 15.9119C1.90455 15.8842 1.81459 15.8522 1.7262 15.8156C1.6378 15.7792 1.55135 15.7385 1.46705 15.6935C1.38274 15.6487 1.30077 15.5997 1.22114 15.5468C1.1415 15.4939 1.06479 15.4371 0.9908 15.3768C0.917008 15.3164 0.846135 15.2524 0.778378 15.1852C0.710816 15.1177 0.646564 15.0472 0.585816 14.9737C0.525263 14.9001 0.468215 14.8237 0.41506 14.7445C0.361906 14.6652 0.312646 14.5836 0.267669 14.4997C0.222498 14.4158 0.18161 14.3298 0.145006 14.2418C0.108207 14.1538 0.0760806 14.0642 0.0482379 13.9732C0.0203952 13.8821 -0.00296924 13.7898 -0.0216608 13.6964C-0.0403524 13.603 -0.0543711 13.5088 -0.0639116 13.4141C-0.0732574 13.3193 -0.078125 13.2243 -0.078125 13.129V2.94816C-0.078125 2.85282 -0.0732574 2.75785 -0.0639116 2.66309C-0.0543711 2.56832 -0.0403524 2.47413 -0.0216608 2.38072C-0.00296924 2.28731 0.0203952 2.19506 0.0482379 2.10398C0.0760806 2.01289 0.108207 1.92336 0.145006 1.83537C0.18161 1.74739 0.222498 1.66134 0.267669 1.57743C0.312646 1.49351 0.361906 1.41192 0.41506 1.33266C0.468215 1.25359 0.525263 1.17704 0.585816 1.1034C0.646564 1.02995 0.710816 0.959404 0.778378 0.891963C0.846135 0.824715 0.917008 0.760761 0.9908 0.700296C1.06479 0.640025 1.1415 0.583242 1.22114 0.530335C1.30077 0.477428 1.38274 0.428591 1.46705 0.383629C1.55135 0.338668 1.6378 0.29797 1.7262 0.261536C1.81459 0.224908 1.90455 0.192932 1.99606 0.165218C2.08757 0.137505 2.18025 0.114443 2.27409 0.0956448C2.36794 0.0770401 2.46257 0.0630866 2.55778 0.0535905C2.65299 0.0442882 2.74839 0.0394432 2.84419 0.0394432H7.22737C7.2519 0.038668 7.27624 0.0390556 7.30057 0.0407998C7.32491 0.0423502 7.34925 0.0452572 7.37339 0.0493269C7.39734 0.0533967 7.42129 0.0586293 7.44485 0.0650246C7.46841 0.0716138 7.49158 0.0791719 7.51436 0.0878928C7.53714 0.0966137 7.55934 0.106497 7.58114 0.117544C7.60295 0.12859 7.62417 0.140606 7.64481 0.15359C7.66545 0.166769 7.68531 0.180916 7.70439 0.195839C7.72367 0.210955 7.74197 0.22704 7.75949 0.243901C7.77702 0.260761 7.79376 0.278591 7.80953 0.297195C7.8253 0.3158 7.8401 0.334986 7.85392 0.355141C7.86775 0.375102 7.8804 0.395839 7.89228 0.417156C7.90396 0.438474 7.91448 0.460373 7.92402 0.482854C7.93356 0.505141 7.94193 0.528009 7.94933 0.551265C7.95653 0.574521 7.96257 0.59797 7.96744 0.621808C7.9723 0.645645 7.976 0.669676 7.97834 0.693901C7.98087 0.718125 7.98204 0.74235 7.98204 0.766575C7.98204 0.790994 7.98087 0.815218 7.97834 0.839443C7.976 0.863668 7.9723 0.887699 7.96744 0.911536C7.96257 0.93518 7.95653 0.958823 7.94933 0.982079C7.94193 1.00533 7.93356 1.02801 7.92402 1.05049C7.91448 1.07278 7.90396 1.09468 7.89228 1.11599C7.8804 1.13731 7.86775 1.15805 7.85392 1.1782C7.8401 1.19816 7.8253 1.21754 7.80953 1.23615C7.79376 1.25475 7.77702 1.27239 7.75949 1.28925C7.74197 1.3063 7.72367 1.3222 7.70439 1.33731C7.68531 1.35243 7.66545 1.36658 7.64481 1.37956C7.62417 1.39274 7.60295 1.40475 7.58114 1.4158C7.55934 1.42665 7.53714 1.43654 7.51436 1.44526C7.49158 1.45417 7.46841 1.46173 7.44485 1.46813C7.42129 1.47452 7.39734 1.47975 7.37339 1.48382C7.34925 1.48789 7.32491 1.4908 7.30057 1.49254C7.27624 1.49409 7.2519 1.49448 7.22737 1.49371H2.84419C2.79629 1.4939 2.74859 1.49623 2.70089 1.50107C2.65338 1.50572 2.60607 1.5127 2.55914 1.5222C2.51222 1.5315 2.46588 1.54313 2.42012 1.55689C2.37437 1.57084 2.32959 1.58692 2.28539 1.60514C2.24119 1.62336 2.19797 1.64371 2.15571 1.66619C2.11366 1.68867 2.07258 1.71309 2.03286 1.73964C1.99314 1.76599 1.95478 1.79429 1.91779 1.82452C1.88079 1.85475 1.84536 1.88673 1.81167 1.92045C1.77779 1.95398 1.74567 1.98925 1.71529 2.02607C1.68492 2.06289 1.65649 2.10107 1.63001 2.14061C1.60334 2.18014 1.57881 2.22103 1.55622 2.26289C1.53364 2.30495 1.51319 2.34797 1.49489 2.39196C1.47639 2.43596 1.46043 2.48072 1.44641 2.52627C1.43239 2.57181 1.4209 2.61793 1.41136 2.66444C1.40202 2.71115 1.39501 2.75824 1.39014 2.80553C1.38547 2.85301 1.38313 2.90049 1.38293 2.94816V13.129C1.38313 13.1767 1.38547 13.2241 1.39014 13.2716C1.39501 13.3189 1.40202 13.366 1.41136 13.4127C1.4209 13.4594 1.43239 13.5055 1.44641 13.5511C1.46043 13.5966 1.47639 13.6412 1.49489 13.6852C1.51319 13.7292 1.53364 13.7722 1.55622 13.8142C1.57881 13.8561 1.60334 13.897 1.63001 13.9365C1.65649 13.9761 1.68492 14.0142 1.71529 14.0511C1.74567 14.0879 1.77779 14.1232 1.81167 14.1567C1.84536 14.1904 1.88079 14.2224 1.91779 14.2526C1.95478 14.2829 1.99314 14.3111 2.03286 14.3375C2.07258 14.3641 2.11366 14.3885 2.15571 14.411C2.19797 14.4334 2.24119 14.4538 2.28539 14.472C2.32959 14.4904 2.37437 14.5063 2.42012 14.5203C2.46588 14.5342 2.51222 14.5456 2.55914 14.5551C2.60607 14.5644 2.65338 14.5714 2.70089 14.5763C2.74859 14.5809 2.79629 14.5832 2.84419 14.5834H13.0726C13.1205 14.5832 13.1682 14.5809 13.2159 14.5763C13.2634 14.5714 13.3107 14.5644 13.3576 14.5551C13.4044 14.5456 13.4507 14.5342 13.4964 14.5203C13.5422 14.5063 13.5872 14.4904 13.6314 14.472C13.6756 14.4538 13.7188 14.4334 13.7611 14.411C13.8031 14.3885 13.8442 14.3641 13.8839 14.3375C13.9236 14.3111 13.962 14.2829 13.999 14.2526C14.036 14.2224 14.0714 14.1904 14.1051 14.1567C14.139 14.1232 14.1711 14.0879 14.2015 14.0511C14.2318 14.0142 14.2603 13.9761 14.2868 13.9365C14.3134 13.897 14.338 13.8561 14.3605 13.8142C14.3831 13.7722 14.4036 13.7292 14.4219 13.6852C14.4402 13.6412 14.4563 13.5966 14.4704 13.5511C14.4842 13.5053 14.4959 13.4594 14.5052 13.4127C14.5147 13.366 14.5218 13.3189 14.5264 13.2716C14.5313 13.2241 14.5336 13.1767 14.5338 13.129V8.76619C14.5331 8.74177 14.5334 8.71754 14.535 8.69332C14.5368 8.6691 14.5397 8.64487 14.5438 8.62084C14.5478 8.597 14.5531 8.57316 14.5595 8.54972C14.566 8.52627 14.5736 8.5032 14.5825 8.48053C14.5913 8.45786 14.6012 8.43576 14.6121 8.41406C14.6232 8.39235 14.6353 8.37123 14.6485 8.35068C14.6616 8.33014 14.6758 8.31037 14.691 8.29138C14.7061 8.2722 14.7221 8.25398 14.7392 8.23654C14.7562 8.2191 14.7739 8.20243 14.7926 8.18673C14.8113 8.17103 14.8308 8.1563 14.8508 8.14254C14.8711 8.12879 14.8919 8.11619 14.9133 8.10437C14.9347 8.09274 14.9567 8.08227 14.9791 8.07278C15.0017 8.06328 15.0245 8.05495 15.0478 8.04758C15.0712 8.04041 15.095 8.03441 15.1187 8.02956C15.1427 8.02471 15.1668 8.02103 15.1912 8.01871C15.2155 8.01619 15.2398 8.01503 15.2644 8.01503C15.2887 8.01503 15.313 8.01619 15.3374 8.01871C15.3617 8.02103 15.3859 8.02471 15.4098 8.02956C15.4338 8.03441 15.4573 8.04041 15.4807 8.04758C15.504 8.05495 15.527 8.06328 15.5494 8.07278C15.572 8.08227 15.594 8.09274 15.6154 8.10437C15.6368 8.11619 15.6577 8.12879 15.6777 8.14254C15.698 8.1563 15.7172 8.17103 15.7359 8.18673C15.7546 8.20243 15.7725 8.2191 15.7895 8.23654C15.8064 8.25398 15.8226 8.2722 15.8378 8.29138C15.8528 8.31037 15.867 8.33014 15.8802 8.35068C15.8933 8.37123 15.9053 8.39235 15.9164 8.41406C15.9275 8.43576 15.9375 8.45786 15.9462 8.48053C15.955 8.5032 15.9626 8.52627 15.9692 8.54972C15.9756 8.57316 15.9809 8.597 15.985 8.62084C15.989 8.64487 15.992 8.6691 15.9935 8.69332C15.9953 8.71754 15.9957 8.74177 15.9949 8.76619V13.129C15.9949 13.2243 15.99 13.3193 15.9807 13.4141C15.9711 13.5088 15.9571 13.603 15.9384 13.6964C15.9195 13.7898 15.8964 13.8821 15.8685 13.9732C15.8407 14.0642 15.8086 14.1538 15.7718 14.2418C15.7352 14.3298 15.6943 14.4158 15.6491 14.4997C15.6039 14.5836 15.5549 14.6652 15.5017 14.7445C15.4486 14.8237 15.3915 14.9001 15.3309 14.9737C15.2702 15.0472 15.2059 15.1177 15.1384 15.1852C15.0706 15.2524 14.9998 15.3164 14.926 15.3768C14.852 15.4371 14.7751 15.4939 14.6956 15.5468C14.616 15.5997 14.534 15.6487 14.4497 15.6935C14.3654 15.7385 14.279 15.7792 14.1906 15.8156C14.1022 15.8522 14.0122 15.8842 13.9207 15.9119C13.8292 15.9396 13.7365 15.9629 13.6427 15.9815C13.5488 16.0001 13.4542 16.0141 13.359 16.0236C13.2638 16.0329 13.1684 16.0377 13.0726 16.0377H2.84419Z" fill="#888888"/>
<path d="M13.0771 15.8531H2.84867C2.75891 15.8531 2.66934 15.8486 2.58017 15.8397C2.49099 15.8308 2.4024 15.8176 2.3144 15.8001C2.22659 15.7827 2.13955 15.7608 2.05388 15.7348C1.96802 15.7089 1.88371 15.6788 1.80096 15.6445C1.71802 15.6104 1.63702 15.5722 1.55797 15.53C1.47892 15.4879 1.40221 15.442 1.32764 15.3924C1.25307 15.3428 1.18122 15.2897 1.11191 15.2331C1.04259 15.1765 0.976197 15.1166 0.912724 15.0534C0.84925 14.9903 0.789087 14.9242 0.732233 14.8552C0.67538 14.7862 0.622031 14.7147 0.572186 14.6405C0.522342 14.5662 0.476197 14.4899 0.433947 14.4112C0.391501 14.3325 0.353144 14.2519 0.318877 14.1693C0.284414 14.087 0.254235 14.0031 0.228144 13.9176C0.202054 13.8323 0.180053 13.7457 0.162529 13.6583C0.145006 13.5707 0.131766 13.4825 0.12281 13.3938C0.113853 13.305 0.109375 13.2158 0.109375 13.1265V2.94569C0.109375 2.85635 0.113853 2.7674 0.12281 2.67845C0.131766 2.58969 0.145006 2.50151 0.162529 2.41391C0.180053 2.32651 0.202054 2.23988 0.228144 2.15461C0.254235 2.06914 0.284414 1.98523 0.318877 1.90286C0.353144 1.82031 0.391501 1.73988 0.433947 1.661C0.476197 1.58232 0.522342 1.50596 0.572186 1.43174C0.622031 1.35751 0.67538 1.286 0.732233 1.21701C0.789087 1.14802 0.84925 1.08193 0.912724 1.01876C0.976197 0.955577 1.04259 0.895693 1.11191 0.839104C1.18122 0.782515 1.25307 0.729414 1.32764 0.679802C1.40221 0.630189 1.47892 0.584259 1.55797 0.542205C1.63702 0.499957 1.71802 0.461778 1.80096 0.42767C1.88371 0.393368 1.96802 0.363329 2.05388 0.33736C2.13955 0.311391 2.22659 0.289685 2.3144 0.27205C2.4024 0.254608 2.49099 0.24143 2.58017 0.232515C2.66934 0.2236 2.75891 0.219143 2.84867 0.219143H7.23184C7.26864 0.217786 7.30525 0.219918 7.34166 0.225926C7.37807 0.231934 7.4135 0.24143 7.44777 0.254608C7.48223 0.267592 7.51494 0.284065 7.5461 0.303639C7.57725 0.323406 7.60606 0.345887 7.63254 0.371275C7.65902 0.396662 7.68278 0.424569 7.70381 0.454802C7.72464 0.485034 7.74236 0.517011 7.75677 0.550732C7.77117 0.584453 7.78208 0.619337 7.78928 0.655189C7.79668 0.691236 7.80038 0.727476 7.80038 0.764104C7.80038 0.800732 7.79668 0.837166 7.78928 0.873019C7.78208 0.909065 7.77117 0.943755 7.75677 0.97767C7.74236 1.01139 7.72464 1.04337 7.70381 1.0736C7.68278 1.10364 7.65902 1.13155 7.63254 1.15693C7.60606 1.18251 7.57725 1.205 7.5461 1.22457C7.51494 1.24434 7.48223 1.26062 7.44777 1.27379C7.4135 1.28678 7.37807 1.29627 7.34166 1.30228C7.30525 1.30829 7.26864 1.31062 7.23184 1.30926H2.84867C2.79473 1.30926 2.74099 1.31197 2.68745 1.3174C2.63391 1.32263 2.58075 1.33058 2.52799 1.34104C2.47522 1.35151 2.42304 1.36469 2.37164 1.38019C2.32004 1.39589 2.26942 1.41391 2.21977 1.43445C2.17012 1.455 2.12145 1.47786 2.07394 1.50306C2.02663 1.52845 1.98048 1.55596 1.9357 1.58581C1.89092 1.61546 1.84789 1.64744 1.80622 1.68135C1.76455 1.71546 1.72483 1.75131 1.68667 1.7891C1.64871 1.82709 1.61249 1.86662 1.57842 1.9081C1.54434 1.94957 1.51222 1.99259 1.48223 2.03697C1.45244 2.08155 1.4248 2.12748 1.39929 2.17476C1.37398 2.22186 1.351 2.27031 1.33036 2.31972C1.30973 2.36914 1.29142 2.41953 1.27585 2.47089C1.26027 2.52205 1.24703 2.57399 1.23652 2.62651C1.226 2.67903 1.21802 2.73193 1.21257 2.78523C1.20731 2.83852 1.20459 2.89201 1.20459 2.94569V13.1265C1.20459 13.1802 1.20731 13.2337 1.21257 13.287C1.21802 13.3403 1.226 13.3932 1.23652 13.4457C1.24703 13.4982 1.26027 13.5501 1.27585 13.6013C1.29142 13.6527 1.30973 13.7031 1.33036 13.7525C1.351 13.8019 1.37398 13.8503 1.39929 13.8974C1.4248 13.9447 1.45244 13.9907 1.48223 14.0352C1.51222 14.0798 1.54434 14.1226 1.57842 14.1641C1.61249 14.2056 1.64871 14.2451 1.68667 14.2831C1.72483 14.3209 1.76455 14.3569 1.80622 14.3908C1.84789 14.4248 1.89092 14.4567 1.9357 14.4866C1.98048 14.5162 2.02663 14.5438 2.07394 14.5691C2.12145 14.5943 2.17012 14.6172 2.21977 14.6377C2.26942 14.6583 2.32004 14.6765 2.37164 14.692C2.42304 14.7075 2.47522 14.7207 2.52799 14.7312C2.58075 14.7416 2.63391 14.7496 2.68745 14.755C2.74099 14.7602 2.79473 14.7629 2.84867 14.7629H13.0771C13.131 14.7629 13.1847 14.7602 13.2383 14.755C13.2918 14.7496 13.345 14.7416 13.3977 14.7312C13.4505 14.7207 13.5027 14.7075 13.5541 14.692C13.6057 14.6765 13.6561 14.6583 13.7059 14.6377C13.7556 14.6172 13.8043 14.5943 13.8516 14.5691C13.8991 14.5438 13.9452 14.5162 13.99 14.4866C14.0346 14.4567 14.0778 14.4248 14.1195 14.3908C14.1612 14.3569 14.2009 14.3209 14.239 14.2831C14.277 14.2451 14.313 14.2056 14.3473 14.1641C14.3814 14.1226 14.4135 14.0798 14.4433 14.0352C14.4733 13.9907 14.5009 13.9447 14.5264 13.8976C14.5517 13.8503 14.5747 13.8019 14.5954 13.7525C14.616 13.7031 14.6341 13.6527 14.6499 13.6013C14.6654 13.5501 14.6787 13.4982 14.6892 13.4457C14.6997 13.3932 14.7077 13.3403 14.713 13.287C14.7184 13.2337 14.7211 13.1802 14.7211 13.1265V8.76372C14.7198 8.72709 14.7221 8.69065 14.7281 8.65441C14.7342 8.61817 14.7437 8.5829 14.7568 8.54879C14.77 8.51449 14.7864 8.48193 14.8062 8.45092C14.8259 8.41992 14.8485 8.39124 14.8742 8.36488C14.8997 8.33833 14.9277 8.31488 14.9579 8.29395C14.9883 8.27321 15.0204 8.25558 15.0543 8.24124C15.0883 8.22689 15.1232 8.21604 15.1594 8.20887C15.1954 8.20151 15.232 8.19782 15.2688 8.19782C15.3056 8.19782 15.342 8.20151 15.3783 8.20887C15.4143 8.21604 15.4493 8.22689 15.4832 8.24124C15.5171 8.25558 15.5492 8.27321 15.5796 8.29395C15.61 8.31488 15.638 8.33833 15.6635 8.36488C15.689 8.39124 15.7116 8.41992 15.7315 8.45092C15.7511 8.48193 15.7677 8.51449 15.7807 8.54879C15.794 8.5829 15.8035 8.61817 15.8095 8.65441C15.8156 8.69065 15.8177 8.72709 15.8163 8.76372V13.1265C15.8163 13.2158 15.8119 13.305 15.8029 13.3938C15.794 13.4825 15.7807 13.5707 15.7632 13.6583C15.7455 13.7457 15.7237 13.8323 15.6976 13.9176C15.6715 14.0031 15.6413 14.087 15.6068 14.1693C15.5726 14.2519 15.5342 14.3325 15.4918 14.4112C15.4495 14.4899 15.4034 14.5662 15.3535 14.6405C15.3037 14.7147 15.2503 14.7862 15.1935 14.8552C15.1366 14.9242 15.0765 14.9903 15.013 15.0534C14.9495 15.1166 14.8831 15.1765 14.8138 15.2331C14.7445 15.2897 14.6727 15.3428 14.5981 15.3924C14.5235 15.442 14.4468 15.4879 14.3677 15.53C14.2885 15.5722 14.2077 15.6104 14.1248 15.6445C14.042 15.6788 13.9577 15.7089 13.8718 15.7348C13.7862 15.7608 13.6991 15.7827 13.6113 15.8001C13.5233 15.8176 13.4347 15.8308 13.3455 15.8397C13.2562 15.8486 13.1668 15.8531 13.0771 15.8531Z" fill="#888888"/>
<path d="M8.69178 8.03806C8.65576 8.03806 8.61994 8.03534 8.5845 8.03011C8.54887 8.02488 8.51402 8.01713 8.47956 8.00686C8.44509 7.99639 8.4118 7.9836 8.37928 7.96829C8.34677 7.95317 8.31562 7.93554 8.28563 7.91577C8.25584 7.89581 8.22761 7.87391 8.20094 7.84988C8.17426 7.82585 8.14953 7.80007 8.12675 7.77236C8.10397 7.74484 8.08333 7.71558 8.06484 7.68496C8.04634 7.65434 8.03018 7.62236 8.01655 7.58941C8.00273 7.55627 7.99143 7.52255 7.98267 7.48786C7.97411 7.45317 7.96788 7.4179 7.96437 7.38244C7.96087 7.34678 7.96009 7.31112 7.96184 7.27546C7.96359 7.23961 7.96788 7.20434 7.97488 7.16926C7.98189 7.13418 7.99143 7.09988 8.0037 7.06616C8.01577 7.03244 8.03038 6.99988 8.04731 6.96829C8.06425 6.9367 8.08333 6.90666 8.10475 6.87798C8.12617 6.8493 8.14973 6.82217 8.17504 6.79697L14.7504 0.252203C14.7841 0.217514 14.8209 0.1867 14.8608 0.159374C14.9007 0.132048 14.943 0.108793 14.9875 0.0898004C15.0319 0.071002 15.0779 0.0564671 15.1254 0.0465833C15.1727 0.0368934 15.2206 0.0316609 15.2691 0.0312733C15.3174 0.0308857 15.3655 0.035343 15.413 0.0444516C15.4605 0.0535601 15.5066 0.0673198 15.5514 0.0855368C15.5964 0.103754 15.6388 0.126234 15.6791 0.152979C15.7194 0.179723 15.7568 0.210149 15.7909 0.244258C15.8252 0.278172 15.8557 0.315382 15.8826 0.355498C15.9095 0.395614 15.9321 0.438056 15.9504 0.48263C15.9687 0.527204 15.9825 0.573134 15.9916 0.620421C16.0008 0.667707 16.0053 0.715576 16.0049 0.763638C16.0045 0.811893 15.9992 0.859568 15.9895 0.906661C15.9796 0.953948 15.965 0.999684 15.9461 1.04387C15.927 1.08825 15.9036 1.1303 15.8762 1.17003C15.8487 1.20976 15.8178 1.24639 15.7829 1.27992L9.20756 7.82468C9.13941 7.8931 9.06055 7.94581 8.97119 7.98282C8.88162 8.01984 8.78855 8.03806 8.69178 8.03806Z" fill="#888888"/>
<path d="M8.68903 7.85402C8.63471 7.85402 8.58175 7.84627 8.52977 7.83057C8.47798 7.81507 8.42949 7.7922 8.38452 7.76235C8.33935 7.73232 8.29963 7.69646 8.26516 7.6548C8.2309 7.61313 8.20325 7.56739 8.18241 7.51759C8.16158 7.46778 8.14854 7.41604 8.14328 7.36235C8.13802 7.30867 8.14055 7.25538 8.15107 7.20247C8.16158 7.14956 8.17969 7.09937 8.20519 7.0517C8.2307 7.00422 8.26263 6.96119 8.30099 6.92301L14.8763 0.378246C14.9017 0.353052 14.9295 0.330378 14.9593 0.310417C14.9893 0.290649 15.0208 0.273789 15.0541 0.260223C15.0874 0.246463 15.1217 0.236192 15.1569 0.229215C15.1923 0.222238 15.228 0.21875 15.2638 0.21875C15.2998 0.21875 15.3355 0.222238 15.3709 0.229215C15.4061 0.236192 15.4404 0.246463 15.4737 0.260223C15.5068 0.273983 15.5383 0.290843 15.5683 0.31061C15.5983 0.330572 15.6259 0.353246 15.6515 0.37844C15.6768 0.403828 15.6995 0.431347 15.7196 0.461192C15.7395 0.491037 15.7564 0.522432 15.7702 0.555378C15.784 0.588517 15.7944 0.622626 15.8014 0.657703C15.8084 0.692975 15.8119 0.72844 15.8119 0.764293C15.8119 0.799952 15.8084 0.835417 15.8014 0.870688C15.7944 0.905765 15.784 0.939874 15.7702 0.973014C15.7566 1.00615 15.7397 1.03755 15.7198 1.06739C15.6997 1.09704 15.677 1.12476 15.6517 1.14995L9.0763 7.69472C9.0249 7.74588 8.96551 7.78522 8.89854 7.81274C8.83136 7.84026 8.76146 7.85402 8.68903 7.85402Z" fill="#888888"/>
<path d="M15.2704 5.85631C15.2225 5.85631 15.175 5.85166 15.1279 5.84216C15.081 5.83286 15.0354 5.8191 14.991 5.80088C14.9468 5.78247 14.9048 5.76019 14.8649 5.73364C14.8251 5.70709 14.7881 5.67705 14.7543 5.64333C14.7204 5.60961 14.6902 5.57278 14.6635 5.53325C14.6369 5.49352 14.6143 5.45166 14.596 5.40767C14.5777 5.36348 14.5638 5.31813 14.5543 5.27123C14.545 5.22453 14.5403 5.17724 14.5403 5.12957V1.49333H10.887C10.8401 1.49197 10.7936 1.48596 10.7478 1.4755C10.7021 1.46503 10.6577 1.4503 10.6147 1.4315C10.5716 1.41251 10.5309 1.38964 10.4924 1.3629C10.4538 1.33616 10.4182 1.30592 10.3855 1.2722C10.3528 1.23867 10.3238 1.20224 10.2981 1.16309C10.2724 1.12395 10.2508 1.08267 10.2332 1.03926C10.2155 0.995845 10.2023 0.951272 10.1933 0.905342C10.1842 0.859411 10.1797 0.813094 10.1797 0.766194C10.1797 0.719489 10.1842 0.673171 10.1933 0.627241C10.2023 0.581311 10.2155 0.536543 10.2332 0.493326C10.2508 0.449915 10.2724 0.408636 10.2981 0.369489C10.3238 0.330148 10.3528 0.293714 10.3855 0.260187C10.4182 0.226659 10.4538 0.196427 10.4924 0.169683C10.5309 0.142745 10.5716 0.12007 10.6147 0.101078C10.6577 0.0820858 10.7021 0.0673571 10.7478 0.056892C10.7936 0.0466207 10.8401 0.0406129 10.887 0.0390625H15.2704C15.3183 0.0390625 15.3658 0.0439075 15.4129 0.0532098C15.4601 0.0625121 15.5056 0.0762718 15.55 0.0946827C15.5942 0.1129 15.6365 0.13538 15.6764 0.161931C15.7161 0.188481 15.7531 0.218714 15.787 0.252435C15.8208 0.286156 15.8512 0.322977 15.8779 0.362512C15.9046 0.402241 15.9272 0.444295 15.9455 0.488287C15.964 0.532473 15.9778 0.577822 15.9871 0.624721C15.9965 0.671621 16.0013 0.718907 16.0013 0.766582V5.12957C16.0013 5.17724 15.9965 5.22453 15.9871 5.27143C15.9778 5.31813 15.9638 5.36368 15.9455 5.40767C15.9272 5.45185 15.9046 5.49371 15.8779 5.53344C15.8512 5.57317 15.8208 5.6098 15.787 5.64352C15.7531 5.67724 15.7161 5.70747 15.6762 5.73383C15.6363 5.76038 15.5942 5.78286 15.55 5.80108C15.5056 5.8193 15.4599 5.83306 15.4129 5.84236C15.3658 5.85166 15.3183 5.85631 15.2704 5.85631Z" fill="#888888"/>
<path d="M15.2644 5.67438C15.2284 5.67438 15.1928 5.67089 15.1575 5.66391C15.1223 5.65674 15.088 5.64647 15.0549 5.63271C15.0216 5.61895 14.9901 5.60209 14.9603 5.58232C14.9305 5.56236 14.9028 5.53969 14.8773 5.51449C14.852 5.4891 14.8292 5.46158 14.8094 5.43174C14.7893 5.40209 14.7726 5.37069 14.7588 5.33755C14.7449 5.30441 14.7346 5.2705 14.7276 5.23523C14.7206 5.20015 14.7171 5.16488 14.7171 5.12903V1.30926H10.881C10.8442 1.31062 10.8076 1.30829 10.7712 1.30228C10.735 1.29627 10.6996 1.28678 10.6651 1.27379C10.6306 1.26062 10.5979 1.24434 10.5668 1.22457C10.5356 1.205 10.5068 1.18251 10.4803 1.15693C10.4539 1.13155 10.4301 1.10364 10.4093 1.0736C10.3882 1.04337 10.3707 1.01139 10.3563 0.97767C10.3419 0.943755 10.331 0.909065 10.3236 0.873019C10.3162 0.837166 10.3125 0.800732 10.3125 0.764104C10.3125 0.727476 10.3162 0.691236 10.3236 0.655189C10.331 0.619337 10.3419 0.584453 10.3563 0.550732C10.3707 0.517011 10.3882 0.485034 10.4093 0.454802C10.4301 0.424569 10.4539 0.396662 10.4803 0.371275C10.5068 0.345887 10.5356 0.323406 10.5668 0.303639C10.5979 0.284065 10.6306 0.267592 10.6651 0.254608C10.6996 0.24143 10.735 0.231934 10.7712 0.225926C10.8076 0.219918 10.8442 0.217786 10.881 0.219143H15.2644C15.3004 0.218949 15.3361 0.222437 15.3713 0.229414C15.4067 0.236391 15.441 0.246662 15.4743 0.260422C15.5074 0.273988 15.5391 0.290848 15.5689 0.31081C15.5989 0.330577 15.6266 0.353251 15.6521 0.378639C15.6776 0.404027 15.7004 0.431546 15.7202 0.461391C15.7403 0.491042 15.7572 0.522631 15.7708 0.555577C15.7847 0.588717 15.795 0.622825 15.802 0.658096C15.809 0.693174 15.8125 0.728639 15.8123 0.764492V5.12748C15.8125 5.16333 15.809 5.19899 15.8022 5.23407C15.7952 5.26934 15.7849 5.30345 15.771 5.33678C15.7574 5.36992 15.7405 5.40131 15.7206 5.43116C15.7005 5.4612 15.678 5.48872 15.6525 5.5141C15.6269 5.53949 15.5993 5.56217 15.5693 5.58213C15.5393 5.60209 15.5078 5.61895 15.4745 5.63271C15.4412 5.64647 15.4067 5.65693 15.3715 5.66391C15.3361 5.67089 15.3004 5.67438 15.2644 5.67438Z" fill="#888888"/>
</g>
<defs>
<clipPath id="clip0_237_443">
<rect width="16" height="16" fill="white"/>
</clipPath>
</defs>
</svg>
