<svg width="25" height="25" viewBox="0 0 25 25" fill="none" xmlns="http://www.w3.org/2000/svg">
<g clip-path="url(#clip0_41_809)">
<mask id="mask0_41_809" style="mask-type:luminance" maskUnits="userSpaceOnUse" x="-1" y="0" width="26" height="26">
<path d="M24.9828 0.0195312H-0.0172119V25.039H24.9828V0.0195312Z" fill="white"/>
</mask>
<g mask="url(#mask0_41_809)">
<path d="M12.5572 25.0234C19.4028 25.0234 24.9713 19.4156 24.9713 12.5225C24.9713 5.629 19.4022 0.0212402 12.5572 0.0212402C5.71193 0.0212402 0.143114 5.629 0.143114 12.5225C0.143114 14.6222 0.669975 16.6915 1.67005 18.5269L-0.039238 24.9514L6.21046 23.2645C8.12862 24.416 10.3156 25.0234 12.5572 25.0234ZM12.5572 1.51515C18.5845 1.51515 23.4875 6.45305 23.4875 12.5225C23.4875 18.5916 18.5845 23.5295 12.5572 23.5295C10.4868 23.5295 8.46951 22.9415 6.72316 21.8286L6.44857 21.6531L2.05886 22.838L3.26179 18.3184L3.10626 18.0495C2.13844 16.375 1.62665 14.4634 1.62665 12.5218C1.62665 6.45305 6.53026 1.51515 12.5572 1.51515Z" fill="white"/>
</g>
<path d="M4.63422 12.5224C4.63422 12.5737 4.63663 12.625 4.64175 12.6763C4.64688 12.7276 4.65441 12.7783 4.66436 12.8287C4.6743 12.8793 4.68666 12.9291 4.70143 12.9783C4.7162 13.0275 4.73338 13.076 4.75297 13.1234C4.77256 13.171 4.79426 13.2175 4.81838 13.263C4.84249 13.3082 4.86871 13.3522 4.89705 13.395C4.92568 13.4378 4.95582 13.4791 4.98837 13.5189C5.02092 13.5586 5.05498 13.5969 5.09115 13.6333C5.12732 13.6694 5.165 13.704 5.20448 13.7368C5.24427 13.7693 5.28526 13.7999 5.32776 13.8284C5.36995 13.857 5.41396 13.8834 5.45887 13.9077C5.50408 13.9319 5.5502 13.9541 5.59722 13.9738C5.64454 13.9933 5.69246 14.0106 5.74159 14.0257C5.79042 14.0406 5.83985 14.053 5.88988 14.0631C5.94022 14.0731 5.99055 14.0807 6.04149 14.0858C6.09213 14.0907 6.14337 14.0934 6.19431 14.0934C6.24555 14.0934 6.29648 14.0907 6.34712 14.0858C6.39806 14.0807 6.44869 14.0731 6.49873 14.0631C6.54876 14.053 6.59819 14.0406 6.64732 14.0257C6.69615 14.0106 6.74407 13.9933 6.7914 13.9738C6.83872 13.9541 6.88483 13.9319 6.92974 13.9077C6.97495 13.8834 7.01866 13.857 7.06116 13.8284C7.10365 13.7999 7.14465 13.7693 7.18413 13.7368C7.22361 13.704 7.26129 13.6694 7.29746 13.6333C7.33363 13.5969 7.36799 13.5586 7.40024 13.5189C7.43279 13.4791 7.46323 13.4378 7.49157 13.395C7.5199 13.3522 7.54612 13.3082 7.57023 13.263C7.59435 13.2175 7.61605 13.171 7.63564 13.1234C7.65523 13.076 7.67241 13.0275 7.68718 12.9783C7.70195 12.9291 7.71461 12.8793 7.72456 12.8287C7.7345 12.7783 7.74204 12.7276 7.74686 12.6763C7.75198 12.625 7.75439 12.5737 7.75439 12.5224C7.75439 12.4708 7.75198 12.4195 7.74686 12.3682C7.74204 12.3172 7.7345 12.2662 7.72456 12.2159C7.71461 12.1655 7.70195 12.1154 7.68718 12.0662C7.67241 12.0171 7.65523 11.9685 7.63564 11.9211C7.61605 11.8735 7.59435 11.8271 7.57023 11.7818C7.54612 11.7363 7.5199 11.6923 7.49157 11.6495C7.46323 11.6067 7.43279 11.5654 7.40024 11.5257C7.36799 11.4859 7.33363 11.4477 7.29746 11.4115C7.26129 11.3751 7.22361 11.3405 7.18413 11.3077C7.14465 11.2753 7.10365 11.2446 7.06116 11.2161C7.01866 11.1876 6.97495 11.1611 6.92974 11.1369C6.88483 11.1126 6.83872 11.0904 6.7914 11.071C6.74407 11.0513 6.69615 11.034 6.64732 11.0188C6.59819 11.0039 6.54876 10.9915 6.49873 10.9815C6.44869 10.9714 6.39806 10.9639 6.34712 10.959C6.29648 10.9538 6.24555 10.9514 6.19431 10.9514C6.14337 10.9514 6.09213 10.9538 6.04149 10.959C5.99055 10.9639 5.94022 10.9714 5.88988 10.9815C5.83985 10.9915 5.79042 11.0039 5.74159 11.0188C5.69246 11.034 5.64454 11.0513 5.59722 11.071C5.5502 11.0904 5.50408 11.1126 5.45887 11.1369C5.41396 11.1611 5.36995 11.1876 5.32776 11.2161C5.28526 11.2446 5.24427 11.2753 5.20448 11.3077C5.165 11.3405 5.12732 11.3751 5.09115 11.4115C5.05498 11.4477 5.02092 11.4859 4.98837 11.5257C4.95582 11.5654 4.92568 11.6067 4.89705 11.6495C4.86871 11.6923 4.84249 11.7363 4.81838 11.7818C4.79426 11.8271 4.77256 11.8735 4.75297 11.9211C4.73338 11.9685 4.7162 12.0171 4.70143 12.0662C4.68666 12.1154 4.6743 12.1655 4.66436 12.2159C4.65441 12.2662 4.64688 12.3172 4.64175 12.3682C4.63663 12.4195 4.63422 12.4708 4.63422 12.5224Z" fill="white"/>
<path d="M10.9965 12.5225C10.9965 12.5738 10.9989 12.6251 11.0041 12.6764C11.0092 12.7277 11.0164 12.7784 11.0264 12.8291C11.0366 12.8795 11.049 12.9292 11.0637 12.9784C11.0785 13.0279 11.0957 13.0761 11.1153 13.1238C11.1349 13.1711 11.1566 13.2179 11.1807 13.2631C11.2048 13.3086 11.231 13.3526 11.2597 13.3954C11.288 13.4382 11.3184 13.4795 11.3507 13.5193C11.3832 13.559 11.4173 13.5973 11.4535 13.6334C11.4896 13.6698 11.5276 13.7044 11.5671 13.7372C11.6066 13.7697 11.6476 13.8003 11.6901 13.8289C11.7326 13.8574 11.7763 13.8841 11.8215 13.9081C11.8664 13.9324 11.9125 13.9545 11.9598 13.9742C12.0072 13.994 12.0551 14.0113 12.1039 14.0262C12.153 14.041 12.2025 14.0535 12.2525 14.0635C12.3025 14.0735 12.3532 14.0811 12.4041 14.0862C12.455 14.0911 12.506 14.0938 12.5569 14.0938C12.6082 14.0938 12.6591 14.0911 12.71 14.0862C12.7607 14.0811 12.8113 14.0735 12.8613 14.0635C12.9117 14.0535 12.9611 14.041 13.0099 14.0262C13.0588 14.0113 13.107 13.994 13.154 13.9742C13.2013 13.9545 13.2474 13.9324 13.2927 13.9081C13.3376 13.8841 13.3816 13.8574 13.4241 13.8289C13.4666 13.8003 13.5076 13.7697 13.547 13.7372C13.5865 13.7044 13.6242 13.6698 13.6604 13.6334C13.6965 13.5973 13.7309 13.559 13.7632 13.5193C13.7957 13.4795 13.8261 13.4382 13.8545 13.3954C13.8828 13.3526 13.909 13.3086 13.9331 13.2631C13.9573 13.2179 13.979 13.1711 13.9986 13.1238C14.0181 13.0761 14.0353 13.0279 14.0504 12.9784C14.0652 12.9292 14.0775 12.8795 14.0875 12.8291C14.0974 12.7784 14.105 12.7277 14.1101 12.6764C14.1149 12.6251 14.1173 12.5738 14.1173 12.5225C14.1173 12.4709 14.1149 12.4196 14.1101 12.3683C14.105 12.3171 14.0974 12.2664 14.0875 12.216C14.0775 12.1653 14.0652 12.1155 14.0504 12.0663C14.0353 12.0169 14.0181 11.9686 13.9986 11.921C13.979 11.8736 13.9573 11.8272 13.9331 11.7817C13.909 11.7364 13.8828 11.6921 13.8545 11.6493C13.8261 11.6065 13.7957 11.5652 13.7632 11.5255C13.7309 11.4857 13.6965 11.4478 13.6604 11.4114C13.6242 11.3749 13.5865 11.3403 13.547 11.3079C13.5076 11.2751 13.4666 11.2444 13.4241 11.2159C13.3816 11.1874 13.3376 11.161 13.2927 11.1367C13.2474 11.1124 13.2013 11.0902 13.154 11.0705C13.107 11.0511 13.0588 11.0335 13.0099 11.0186C12.9611 11.0037 12.9117 10.9913 12.8613 10.9813C12.8113 10.9713 12.7607 10.9637 12.71 10.9585C12.6591 10.9537 12.6082 10.9509 12.5569 10.9509C12.506 10.9509 12.455 10.9537 12.4041 10.9585C12.3532 10.9637 12.3025 10.9713 12.2525 10.9813C12.2025 10.9913 12.153 11.0037 12.1039 11.0186C12.0551 11.0335 12.0072 11.0511 11.9598 11.0705C11.9125 11.0902 11.8664 11.1124 11.8215 11.1367C11.7763 11.161 11.7326 11.1874 11.6901 11.2159C11.6476 11.2444 11.6066 11.2751 11.5671 11.3079C11.5276 11.3403 11.4896 11.3749 11.4535 11.4114C11.4173 11.4478 11.3832 11.4857 11.3507 11.5255C11.3184 11.5652 11.288 11.6065 11.2597 11.6493C11.231 11.6921 11.2048 11.7364 11.1807 11.7817C11.1566 11.8272 11.1349 11.8736 11.1153 11.921C11.0957 11.9686 11.0785 12.0169 11.0637 12.0663C11.049 12.1155 11.0366 12.1653 11.0264 12.216C11.0164 12.2664 11.0092 12.3171 11.0041 12.3683C10.9989 12.4196 10.9965 12.4709 10.9965 12.5225Z" fill="white"/>
<path d="M17.3605 12.5224C17.3605 12.5737 17.3629 12.625 17.3681 12.6763C17.3729 12.7276 17.3804 12.7783 17.3904 12.8287C17.4003 12.8793 17.4127 12.9291 17.4277 12.9783C17.4425 13.0275 17.4597 13.076 17.4793 13.1234C17.4989 13.171 17.5206 13.2175 17.5447 13.263C17.5688 13.3082 17.595 13.3522 17.6234 13.395C17.6517 13.4378 17.6821 13.4791 17.7147 13.5189C17.7469 13.5586 17.7813 13.5969 17.8175 13.6333C17.8536 13.6694 17.8913 13.704 17.9308 13.7368C17.9703 13.7693 18.0113 13.7999 18.0538 13.8284C18.0963 13.857 18.14 13.8834 18.1852 13.9077C18.2301 13.9319 18.2762 13.9541 18.3235 13.9738C18.3709 13.9933 18.4188 14.0106 18.4676 14.0257C18.5167 14.0406 18.5662 14.053 18.6162 14.0631C18.6662 14.0731 18.7169 14.0807 18.7675 14.0858C18.8184 14.0907 18.8694 14.0934 18.9206 14.0934C18.9716 14.0934 19.0225 14.0907 19.0734 14.0858C19.1244 14.0807 19.1747 14.0731 19.225 14.0631C19.2751 14.053 19.3245 14.0406 19.3733 14.0257C19.4225 14.0106 19.4704 13.9933 19.5177 13.9738C19.5647 13.9541 19.6108 13.9319 19.6561 13.9077C19.701 13.8834 19.7447 13.857 19.7872 13.8284C19.8297 13.7999 19.8707 13.7693 19.9101 13.7368C19.9496 13.704 19.9876 13.6694 20.0238 13.6333C20.0599 13.5969 20.094 13.5586 20.1266 13.5189C20.1588 13.4791 20.1893 13.4378 20.2176 13.395C20.2462 13.3522 20.2724 13.3082 20.2966 13.263C20.3207 13.2175 20.3424 13.171 20.362 13.1234C20.3815 13.076 20.3987 13.0275 20.4135 12.9783C20.4283 12.9291 20.4406 12.8793 20.4506 12.8287C20.4605 12.7783 20.4681 12.7276 20.4732 12.6763C20.478 12.625 20.4807 12.5737 20.4807 12.5224C20.4807 12.4708 20.478 12.4195 20.4732 12.3682C20.4681 12.3172 20.4605 12.2662 20.4506 12.2159C20.4406 12.1655 20.4283 12.1154 20.4135 12.0662C20.3987 12.0171 20.3815 11.9685 20.362 11.9211C20.3424 11.8735 20.3207 11.8271 20.2966 11.7818C20.2724 11.7363 20.2462 11.6923 20.2176 11.6495C20.1893 11.6067 20.1588 11.5654 20.1266 11.5257C20.094 11.4859 20.0599 11.4477 20.0238 11.4115C19.9876 11.3751 19.9496 11.3405 19.9101 11.3077C19.8707 11.2753 19.8297 11.2446 19.7872 11.2161C19.7447 11.1876 19.701 11.1611 19.6561 11.1369C19.6108 11.1126 19.5647 11.0904 19.5177 11.071C19.4704 11.0513 19.4225 11.034 19.3733 11.0188C19.3245 11.0039 19.2751 10.9915 19.225 10.9815C19.1747 10.9714 19.1244 10.9639 19.0734 10.959C19.0225 10.9538 18.9716 10.9514 18.9206 10.9514C18.8694 10.9514 18.8184 10.9538 18.7675 10.959C18.7169 10.9639 18.6662 10.9714 18.6162 10.9815C18.5662 10.9915 18.5167 11.0039 18.4676 11.0188C18.4188 11.034 18.3709 11.0513 18.3235 11.071C18.2762 11.0904 18.2301 11.1126 18.1852 11.1369C18.14 11.1611 18.0963 11.1876 18.0538 11.2161C18.0113 11.2446 17.9703 11.2753 17.9308 11.3077C17.8913 11.3405 17.8536 11.3751 17.8175 11.4115C17.7813 11.4477 17.7469 11.4859 17.7147 11.5257C17.6821 11.5654 17.6517 11.6067 17.6234 11.6495C17.595 11.6923 17.5688 11.7363 17.5447 11.7818C17.5206 11.8271 17.4989 11.8735 17.4793 11.9211C17.4597 11.9685 17.4425 12.0171 17.4277 12.0662C17.4127 12.1154 17.4003 12.1655 17.3904 12.2159C17.3804 12.2662 17.3729 12.3172 17.3681 12.3682C17.3629 12.4195 17.3605 12.4708 17.3605 12.5224Z" fill="white"/>
</g>
<defs>
<clipPath id="clip0_41_809">
<rect width="25" height="25" fill="white" transform="matrix(-1 0 0 1 25 0)"/>
</clipPath>
</defs>
</svg>
